<?xml version='1.0' encoding='ascii'?>
<svg xmlns="http://www.w3.org/2000/svg" version="1.1" width="1920" height="1080">
    <g id="ViewLayer_LineSet" xmlns:inkscape="http://www.inkscape.org/namespaces/inkscape" inkscape:groupmode="lineset" inkscape:label="ViewLayer_LineSet">
        <g xmlns:inkscape="http://www.inkscape.org/namespaces/inkscape" inkscape:groupmode="layer" id="strokes" inkscape:label="strokes">
            <path fill="none" stroke-width="3.0" stroke-linecap="butt" stroke-opacity="1.0" stroke="rgb(0, 0, 0)" stroke-linejoin="round" d=" M 1331.684, 386.254 1322.078, 383.473 1312.473, 380.693 1302.867, 377.912 1293.262, 375.132 1283.656, 372.351 1274.050, 369.570 1264.445, 366.790 1254.839, 364.009 1245.233, 361.229 1235.628, 358.448 1234.571, 358.142 " />
            <path fill="none" stroke-width="3.0" stroke-linecap="butt" stroke-opacity="1.0" stroke="rgb(0, 0, 0)" stroke-linejoin="round" d=" M 1196.276, 369.329 1205.875, 366.525 1215.474, 363.721 1225.073, 360.917 1234.571, 358.142 1234.076, 368.130 1233.581, 378.118 1233.087, 388.105 1232.592, 398.093 1232.097, 408.081 1231.603, 418.069 1231.108, 428.056 1230.614, 438.044 1230.119, 448.032 1229.624, 458.020 1229.130, 468.007 1228.635, 477.995 1228.140, 487.983 1227.646, 497.971 1227.151, 507.958 1226.656, 517.946 1226.162, 527.934 1225.667, 537.922 1225.173, 547.910 1224.678, 557.897 1224.183, 567.885 1223.689, 577.873 1223.194, 587.861 1222.699, 597.848 1222.205, 607.836 1221.710, 617.824 1221.216, 627.812 1220.721, 637.799 1220.226, 647.787 1219.732, 657.775 1219.237, 667.763 1218.743, 677.742 " />
            <path fill="none" stroke-width="3.0" stroke-linecap="butt" stroke-opacity="1.0" stroke="rgb(0, 0, 0)" stroke-linejoin="round" d=" M 1194.030, 686.941 1203.402, 683.452 1212.774, 679.964 1218.743, 677.742 1228.116, 681.227 1237.489, 684.712 1246.862, 688.197 1256.235, 691.682 1265.608, 695.167 1274.981, 698.652 1284.354, 702.137 1293.727, 705.623 1303.100, 709.108 1309.763, 711.585 1319.209, 708.304 1328.656, 705.024 1338.103, 701.743 1347.549, 698.462 1356.996, 695.182 1366.442, 691.901 1375.889, 688.621 1385.336, 685.340 1390.811, 683.439 1391.633, 673.473 1392.456, 663.507 1393.279, 653.540 1394.101, 643.574 1394.924, 633.608 1395.747, 623.642 1395.992, 620.668 1396.815, 610.702 1397.637, 600.736 1398.460, 590.770 1399.283, 580.803 1400.105, 570.837 1400.928, 560.871 1401.751, 550.905 1402.573, 540.939 1403.396, 530.973 1404.219, 521.007 1405.042, 511.041 1405.864, 501.075 1406.687, 491.109 1407.510, 481.142 1408.332, 471.176 1409.155, 461.210 1409.978, 451.244 1410.902, 440.051 1411.724, 430.084 1412.547, 420.118 1413.370, 410.152 1414.192, 400.186 1415.015, 390.220 1415.838, 380.254 1416.660, 370.288 1417.273, 362.869 1415.256, 360.949 1408.012, 354.055 1406.038, 352.176 1398.794, 345.282 1396.936, 343.513 1389.693, 336.619 1387.962, 334.972 1380.719, 328.078 1379.133, 326.569 1374.038, 321.719 " />
            <path fill="none" stroke-width="3.0" stroke-linecap="butt" stroke-opacity="1.0" stroke="rgb(0, 0, 0)" stroke-linejoin="round" d=" M 1309.763, 711.585 1310.435, 701.607 1311.108, 691.630 1311.780, 681.653 1312.452, 671.675 1313.124, 661.698 1313.797, 651.721 1314.469, 641.743 1315.141, 631.766 1315.813, 621.788 1316.486, 611.811 1317.158, 601.834 1317.830, 591.856 1318.503, 581.879 1319.175, 571.902 1319.847, 561.924 1320.520, 551.947 1321.192, 541.969 1321.864, 531.992 1322.536, 522.015 1323.209, 512.037 1323.881, 502.060 1324.553, 492.083 1325.226, 482.105 1325.898, 472.128 1326.570, 462.150 1327.242, 452.173 1327.915, 442.196 1328.587, 432.218 1329.259, 422.241 1329.932, 412.263 1330.604, 402.286 1331.276, 392.309 1331.684, 386.254 1341.330, 383.618 1350.977, 380.983 1360.623, 378.347 1370.027, 375.778 1379.673, 373.142 1389.320, 370.506 1398.966, 367.871 1408.613, 365.235 1417.273, 362.869 " />
            <path fill="none" stroke-width="3.0" stroke-linecap="butt" stroke-opacity="1.0" stroke="rgb(0, 0, 0)" stroke-linejoin="round" d=" M 1545.361, 333.390 1535.868, 330.246 1526.375, 327.102 1516.882, 323.958 1507.390, 320.814 1497.897, 317.670 1488.404, 314.525 1478.911, 311.381 1469.418, 308.237 1459.925, 305.093 1455.925, 303.768 " />
            <path fill="none" stroke-width="3.0" stroke-linecap="butt" stroke-opacity="1.0" stroke="rgb(0, 0, 0)" stroke-linejoin="round" d=" M 1422.177, 310.773 1431.968, 308.740 1441.759, 306.708 1451.550, 304.676 1455.925, 303.768 1455.042, 313.729 1454.160, 323.690 1453.278, 333.651 1452.396, 343.612 1451.513, 353.573 1450.631, 363.534 1449.748, 373.495 1448.866, 383.456 1447.984, 393.417 1447.101, 403.378 1446.219, 413.339 1445.337, 423.300 1444.454, 433.261 1443.572, 443.222 1442.690, 453.183 1441.807, 463.144 1440.925, 473.105 1440.043, 483.066 1439.160, 493.027 1438.278, 502.988 1437.396, 512.949 1436.513, 522.910 1435.631, 532.871 1434.749, 542.832 1433.866, 552.793 1432.984, 562.754 1432.102, 572.715 1431.219, 582.676 1430.337, 592.637 1429.455, 602.598 1428.621, 612.010 " />
            <path fill="none" stroke-width="3.0" stroke-linecap="butt" stroke-opacity="1.0" stroke="rgb(0, 0, 0)" stroke-linejoin="round" d=" M 1395.992, 620.668 1396.576, 620.499 1406.243, 617.938 1415.909, 615.378 1425.576, 612.817 1428.621, 612.010 1437.813, 615.949 1447.005, 619.887 1456.196, 623.825 1465.388, 627.763 1474.580, 631.702 1483.772, 635.640 1492.964, 639.578 1502.156, 643.516 1511.348, 647.454 1512.306, 647.865 1522.024, 645.507 1531.743, 643.149 1541.461, 640.792 1551.179, 638.434 1560.897, 636.076 1570.615, 633.718 1580.333, 631.360 1590.051, 629.002 1595.389, 627.707 1596.585, 617.779 1597.781, 607.851 1598.977, 597.922 1600.173, 587.994 1601.369, 578.066 1601.988, 572.931 1603.184, 563.002 1604.380, 553.074 1605.576, 543.146 1606.772, 533.218 1607.968, 523.289 1609.164, 513.361 1610.359, 503.433 1611.555, 493.505 1612.751, 483.577 1613.947, 473.648 1614.941, 465.399 1616.137, 455.471 1617.333, 445.543 1618.529, 435.614 1619.725, 425.686 1620.921, 415.758 1622.117, 405.830 1623.313, 395.901 1624.509, 385.973 1625.705, 376.045 1626.901, 366.117 1628.097, 356.189 1629.292, 346.260 1630.489, 336.332 1631.684, 326.404 1632.850, 316.725 1626.125, 309.324 1619.400, 301.923 1612.675, 294.522 1605.950, 287.121 1599.225, 279.720 1597.494, 277.814 " />
            <path fill="none" stroke-width="3.0" stroke-linecap="butt" stroke-opacity="1.0" stroke="rgb(0, 0, 0)" stroke-linejoin="round" d=" M 1512.306, 647.865 1513.352, 637.920 1514.397, 627.975 1515.442, 618.029 1516.488, 608.084 1517.533, 598.139 1518.578, 588.194 1519.624, 578.249 1520.669, 568.303 1521.714, 558.358 1522.760, 548.413 1523.805, 538.468 1524.851, 528.523 1525.896, 518.577 1526.941, 508.632 1527.987, 498.687 1529.032, 488.742 1530.077, 478.797 1531.123, 468.851 1532.168, 458.906 1533.213, 448.961 1534.259, 439.016 1535.304, 429.070 1536.349, 419.125 1537.395, 409.180 1538.440, 399.235 1539.485, 389.290 1540.531, 379.344 1541.576, 369.399 1542.621, 359.454 1543.667, 349.509 1544.712, 339.563 1545.361, 333.390 1555.184, 331.519 1565.008, 329.648 1574.831, 327.777 1584.655, 325.906 1592.206, 324.467 1602.029, 322.596 1611.853, 320.725 1621.676, 318.854 1631.500, 316.983 1632.850, 316.725 " />
            <path fill="none" stroke-width="3.0" stroke-linecap="butt" stroke-opacity="1.0" stroke="rgb(0, 0, 0)" stroke-linejoin="round" d=" M 1764.474, 296.438 1755.099, 292.959 1745.724, 289.479 1736.349, 286.000 1726.973, 282.521 1717.598, 279.042 1708.223, 275.563 1698.848, 272.084 1689.472, 268.604 1681.177, 265.526 " />
            <path fill="none" stroke-width="3.0" stroke-linecap="butt" stroke-opacity="1.0" stroke="rgb(0, 0, 0)" stroke-linejoin="round" d=" M 1651.717, 269.530 1661.626, 268.183 1671.535, 266.836 1681.177, 265.526 1679.908, 275.445 1678.639, 285.364 1677.370, 295.284 1676.101, 305.203 1674.832, 315.122 1673.563, 325.041 1672.294, 334.960 1671.025, 344.879 1669.756, 354.798 1668.487, 364.718 1667.218, 374.637 1665.949, 384.556 1664.680, 394.475 1663.411, 404.394 1662.142, 414.313 1660.873, 424.232 1659.604, 434.152 1658.335, 444.071 1657.065, 453.990 1655.796, 463.909 1654.527, 473.828 1653.258, 483.747 1651.989, 493.667 1650.720, 503.586 1649.451, 513.505 1648.182, 523.424 1646.913, 533.343 1645.644, 543.262 1644.375, 553.181 1642.791, 565.564 " />
            <path fill="none" stroke-width="3.0" stroke-linecap="butt" stroke-opacity="1.0" stroke="rgb(0, 0, 0)" stroke-linejoin="round" d=" M 1601.988, 572.931 1611.802, 571.014 1614.766, 570.435 1624.618, 568.723 1634.471, 567.010 1642.791, 565.564 1651.794, 569.917 1660.796, 574.270 1669.799, 578.624 1678.802, 582.977 1687.805, 587.330 1696.807, 591.683 1705.810, 596.036 1714.813, 600.389 1720.464, 603.122 1730.348, 601.601 1740.232, 600.081 1750.115, 598.560 1759.999, 597.040 1769.883, 595.520 1779.767, 593.999 1789.651, 592.479 1799.534, 590.959 1806.374, 589.907 1807.947, 580.031 1809.520, 570.156 1811.094, 560.280 1812.667, 550.405 1814.146, 541.121 1814.706, 537.608 1816.279, 527.733 1817.852, 517.857 1819.426, 507.982 1820.999, 498.107 1822.572, 488.231 1824.146, 478.356 1825.719, 468.480 1827.292, 458.605 1828.866, 448.729 1830.439, 438.854 1832.012, 428.978 1833.586, 419.103 1835.159, 409.227 1836.732, 399.352 1838.306, 389.477 1839.879, 379.601 1841.452, 369.726 1843.026, 359.850 1844.599, 349.975 1846.172, 340.099 1847.746, 330.224 1849.319, 320.348 1850.892, 310.473 1852.466, 300.597 1854.039, 290.722 1854.863, 285.550 1848.805, 277.594 1842.747, 269.638 1836.689, 261.682 1830.631, 253.726 1827.849, 250.072 1826.692, 248.553 " />
            <path fill="none" stroke-width="3.0" stroke-linecap="butt" stroke-opacity="1.0" stroke="rgb(0, 0, 0)" stroke-linejoin="round" d=" M 1720.464, 603.122 1721.885, 593.223 1723.305, 583.324 1724.726, 573.426 1726.146, 563.527 1727.567, 553.629 1728.987, 543.730 1730.408, 533.831 1731.828, 523.933 1733.249, 514.034 1734.669, 504.136 1736.089, 494.237 1737.510, 484.338 1738.931, 474.440 1740.351, 464.541 1741.771, 454.643 1743.192, 444.744 1744.612, 434.845 1746.033, 424.947 1747.453, 415.048 1748.874, 405.150 1750.294, 395.251 1751.715, 385.352 1753.135, 375.454 1754.556, 365.555 1755.976, 355.657 1757.397, 345.758 1758.817, 335.859 1760.238, 325.961 1761.658, 316.062 1763.079, 306.164 1764.474, 296.438 1774.403, 295.242 1784.331, 294.046 1794.259, 292.850 1804.187, 291.654 1814.116, 290.458 1820.384, 289.703 1830.312, 288.507 1840.241, 287.312 1850.169, 286.116 1854.863, 285.550 " />
            <path fill="none" stroke-width="3.0" stroke-linecap="butt" stroke-opacity="1.0" stroke="rgb(0, 0, 0)" stroke-linejoin="round" d=" M 405.818, 290.797 396.098, 293.149 388.939, 294.881 379.219, 297.233 369.500, 299.585 359.780, 301.937 357.329, 302.531 347.577, 304.745 337.825, 306.959 328.073, 309.174 318.322, 311.388 312.757, 312.652 303.355, 309.244 293.954, 305.836 284.553, 302.428 275.151, 299.020 265.750, 295.612 256.349, 292.204 246.947, 288.796 244.536, 287.922 234.730, 289.880 224.924, 291.839 215.117, 293.797 205.311, 295.756 195.505, 297.714 185.698, 299.672 175.892, 301.631 166.085, 303.589 156.279, 305.548 146.473, 307.506 142.354, 308.329 141.737, 318.310 141.119, 328.291 140.501, 338.272 139.870, 348.472 130.038, 350.299 120.207, 352.126 110.375, 353.952 100.543, 355.779 90.712, 357.606 80.880, 359.433 76.819, 360.187 68.905, 361.555 70.492, 371.428 72.080, 381.301 73.668, 391.174 75.256, 401.048 76.844, 410.921 78.431, 420.794 80.019, 430.667 81.607, 440.540 83.195, 450.413 84.783, 460.286 86.371, 470.160 87.958, 480.033 89.546, 489.906 91.134, 499.779 92.722, 509.652 94.310, 519.525 95.898, 529.398 97.485, 539.271 99.073, 549.145 100.661, 559.018 102.249, 568.891 103.837, 578.764 105.425, 588.637 107.012, 598.510 108.600, 608.383 110.188, 618.257 111.776, 628.130 113.364, 638.003 114.952, 647.876 116.539, 657.749 118.127, 667.622 119.715, 677.495 120.416, 681.856 128.432, 687.835 136.447, 693.815 144.462, 699.795 152.477, 705.774 160.493, 711.754 168.508, 717.733 176.523, 723.713 184.539, 729.692 192.554, 735.672 200.569, 741.652 208.584, 747.631 216.600, 753.611 224.615, 759.590 232.630, 765.570 240.645, 771.549 248.661, 777.529 256.676, 783.509 264.691, 789.488 272.707, 795.468 280.722, 801.447 288.737, 807.427 296.752, 813.407 304.768, 819.386 312.783, 825.366 320.798, 831.345 328.814, 837.325 336.829, 843.304 344.844, 849.284 352.859, 855.264 360.875, 861.243 368.890, 867.223 376.905, 873.202 384.920, 879.182 392.936, 885.161 400.951, 891.141 408.966, 897.121 416.982, 903.100 424.997, 909.080 433.012, 915.059 441.027, 921.039 449.043, 927.018 457.058, 932.998 465.073, 938.978 473.089, 944.957 481.104, 950.937 489.119, 956.916 497.134, 962.896 505.150, 968.875 513.165, 974.855 521.180, 980.835 529.195, 986.814 537.211, 992.794 545.226, 998.773 553.241, 1004.753 561.257, 1010.733 569.272, 1016.712 577.287, 1022.692 585.302, 1028.671 593.318, 1034.651 599.722, 1039.429 609.571, 1041.163 619.419, 1042.898 629.268, 1044.632 639.116, 1046.366 648.965, 1048.101 658.813, 1049.835 668.661, 1051.570 678.510, 1053.304 688.358, 1055.038 698.207, 1056.773 708.055, 1058.507 718.715, 1060.384 726.441, 1054.035 734.166, 1047.685 741.891, 1041.336 749.617, 1034.986 757.342, 1028.637 765.068, 1022.287 772.793, 1015.937 780.519, 1009.588 788.244, 1003.238 795.970, 996.889 797.592, 995.556 797.261, 985.561 796.930, 975.567 796.599, 965.572 796.268, 955.578 795.938, 945.583 795.607, 935.589 795.276, 925.594 794.945, 915.599 794.614, 905.605 794.284, 895.610 794.093, 889.846 793.762, 879.851 793.431, 869.856 793.100, 859.862 792.770, 849.867 792.439, 839.873 792.108, 829.878 791.777, 819.884 791.446, 809.889 791.115, 799.895 790.785, 789.900 790.454, 779.906 790.123, 769.911 789.792, 759.917 789.461, 749.922 789.131, 739.928 788.800, 729.933 788.469, 719.939 788.138, 709.944 787.807, 699.950 787.477, 689.955 787.146, 679.960 786.815, 669.966 786.484, 659.971 786.153, 649.977 785.823, 639.982 785.492, 629.988 785.337, 625.313 777.013, 619.771 768.689, 614.229 760.365, 608.687 752.041, 603.145 744.766, 598.302 736.442, 592.760 728.118, 587.218 719.794, 581.676 711.470, 576.134 709.256, 574.660 " />
            <path fill="none" stroke-width="3.0" stroke-linecap="butt" stroke-opacity="1.0" stroke="rgb(0, 0, 0)" stroke-linejoin="round" d=" M 785.337, 625.313 776.943, 630.748 768.549, 636.182 760.154, 641.617 751.760, 647.052 743.366, 652.487 734.972, 657.922 726.578, 663.356 718.183, 668.791 713.819, 671.617 705.425, 677.052 699.795, 680.697 " />
            <path fill="none" stroke-width="3.0" stroke-linecap="butt" stroke-opacity="1.0" stroke="rgb(0, 0, 0)" stroke-linejoin="round" d=" M 571.817, 662.761 581.720, 664.149 591.623, 665.537 601.526, 666.925 611.429, 668.313 621.333, 669.700 631.236, 671.088 641.139, 672.476 651.042, 673.864 660.945, 675.252 670.849, 676.640 680.752, 678.028 690.655, 679.416 699.795, 680.697 700.292, 690.684 700.790, 700.672 701.288, 710.660 701.785, 720.647 702.283, 730.635 702.781, 740.622 703.279, 750.610 703.776, 760.598 704.274, 770.585 704.772, 780.573 705.269, 790.560 705.767, 800.548 706.265, 810.536 706.762, 820.523 707.260, 830.511 707.758, 840.499 708.256, 850.486 708.753, 860.474 709.251, 870.461 709.749, 880.449 710.246, 890.437 710.744, 900.424 711.242, 910.412 711.739, 920.399 712.237, 930.387 712.735, 940.375 713.232, 950.362 713.730, 960.350 714.228, 970.337 714.726, 980.325 715.223, 990.313 715.721, 1000.300 716.219, 1010.288 716.716, 1020.275 717.214, 1030.263 717.712, 1040.251 718.209, 1050.238 718.715, 1060.384 " />
            <path fill="none" stroke-width="3.0" stroke-linecap="butt" stroke-opacity="1.0" stroke="rgb(0, 0, 0)" stroke-linejoin="round" d=" M 311.008, 506.556 319.587, 511.695 328.166, 516.833 336.745, 521.971 345.324, 527.109 353.903, 532.247 362.482, 537.385 371.061, 542.523 379.640, 547.662 388.219, 552.800 396.798, 557.938 405.377, 563.076 413.956, 568.214 422.535, 573.353 425.685, 575.239 434.264, 580.378 434.425, 580.474 443.004, 585.612 451.583, 590.750 460.162, 595.888 468.741, 601.027 477.320, 606.165 485.899, 611.303 494.478, 616.441 501.969, 620.928 510.548, 626.066 519.127, 631.204 527.706, 636.342 536.285, 641.480 544.864, 646.618 553.443, 651.757 562.022, 656.895 570.601, 662.033 571.817, 662.761 572.555, 672.734 573.294, 682.706 574.033, 692.679 574.772, 702.652 575.511, 712.624 576.250, 722.597 576.988, 732.570 577.727, 742.542 578.466, 752.515 579.205, 762.488 579.944, 772.460 580.683, 782.433 581.421, 792.406 582.160, 802.378 582.899, 812.351 583.638, 822.324 584.377, 832.296 585.116, 842.269 585.854, 852.242 586.593, 862.214 587.332, 872.187 588.071, 882.160 588.810, 892.132 589.549, 902.105 590.287, 912.078 591.026, 922.050 591.765, 932.023 592.504, 941.996 593.243, 951.968 593.982, 961.941 594.720, 971.914 595.459, 981.886 596.198, 991.859 596.937, 1001.832 597.676, 1011.804 598.415, 1021.777 599.153, 1031.750 599.722, 1039.429 " />
            <path fill="none" stroke-width="3.0" stroke-linecap="butt" stroke-opacity="1.0" stroke="rgb(0, 0, 0)" stroke-linejoin="round" d=" M 794.093, 889.846 802.443, 884.344 803.094, 883.915 812.801, 886.319 822.508, 888.723 832.215, 891.126 841.922, 893.530 851.628, 895.934 861.335, 898.338 871.042, 900.742 880.749, 903.145 890.456, 905.549 900.162, 907.953 909.869, 910.357 914.496, 911.502 922.967, 906.189 931.439, 900.875 939.910, 895.561 948.382, 890.247 956.853, 884.934 965.324, 879.620 973.796, 874.306 982.267, 868.993 990.738, 863.679 993.512, 861.939 993.578, 851.939 993.645, 841.940 993.711, 831.940 993.778, 821.940 993.844, 811.940 993.911, 801.941 993.977, 791.941 994.044, 781.941 994.090, 774.966 994.156, 764.966 994.223, 754.966 994.289, 744.966 994.356, 734.967 994.422, 724.967 994.489, 714.967 994.555, 704.967 994.622, 694.967 994.688, 684.968 994.755, 674.968 994.821, 664.968 994.888, 654.968 994.954, 644.969 995.021, 634.969 995.087, 624.969 995.154, 614.969 995.220, 604.969 995.287, 594.970 995.353, 584.970 995.420, 574.970 995.486, 564.970 995.553, 554.971 995.619, 544.971 995.686, 534.971 995.752, 524.971 995.819, 514.971 995.838, 512.117 987.822, 506.138 979.806, 500.159 971.790, 494.180 970.887, 493.507 962.872, 487.528 954.856, 481.549 946.840, 475.570 938.824, 469.591 932.891, 465.166 " />
            <path fill="none" stroke-width="3.0" stroke-linecap="butt" stroke-opacity="1.0" stroke="rgb(0, 0, 0)" stroke-linejoin="round" d=" M 995.838, 512.117 986.874, 516.550 977.910, 520.983 968.946, 525.416 959.983, 529.849 951.019, 534.282 942.055, 538.715 933.279, 543.055 924.316, 547.488 915.352, 551.921 911.236, 553.956 " />
            <path fill="none" stroke-width="3.0" stroke-linecap="butt" stroke-opacity="1.0" stroke="rgb(0, 0, 0)" stroke-linejoin="round" d=" M 792.049, 530.646 801.863, 532.566 811.677, 534.485 821.491, 536.404 831.305, 538.324 841.120, 540.243 850.934, 542.163 860.748, 544.082 870.562, 546.001 880.376, 547.921 890.190, 549.840 900.004, 551.759 909.818, 553.679 911.236, 553.956 911.327, 563.956 911.418, 573.955 911.510, 583.955 911.601, 593.954 911.692, 603.954 911.783, 613.954 911.874, 623.953 911.966, 633.953 912.057, 643.952 912.148, 653.952 912.239, 663.952 912.330, 673.951 912.421, 683.951 912.513, 693.950 912.604, 703.950 912.695, 713.949 912.786, 723.949 912.877, 733.949 912.968, 743.948 913.060, 753.948 913.151, 763.947 913.242, 773.947 913.333, 783.947 913.424, 793.946 913.515, 803.946 913.607, 813.945 913.698, 823.945 913.789, 833.944 913.880, 843.944 913.971, 853.944 914.062, 863.943 914.154, 873.943 914.245, 883.942 914.336, 893.942 914.427, 903.942 914.496, 911.502 " />
            <path fill="none" stroke-width="3.0" stroke-linecap="butt" stroke-opacity="1.0" stroke="rgb(0, 0, 0)" stroke-linejoin="round" d=" M 743.049, 555.989 751.932, 551.395 760.814, 546.801 769.696, 542.207 778.579, 537.613 787.461, 533.019 792.049, 530.646 792.362, 540.641 792.674, 550.637 792.987, 560.632 793.299, 570.627 793.612, 580.622 793.924, 590.617 794.237, 600.612 794.549, 610.607 794.862, 620.602 795.174, 630.598 795.487, 640.593 795.799, 650.588 796.112, 660.583 796.424, 670.578 796.737, 680.573 797.049, 690.568 797.362, 700.563 797.674, 710.558 797.987, 720.554 798.299, 730.549 798.612, 740.544 798.924, 750.539 799.237, 760.534 799.549, 770.529 799.862, 780.524 800.174, 790.519 800.487, 800.514 800.799, 810.510 801.112, 820.505 801.424, 830.500 801.737, 840.495 802.049, 850.490 802.362, 860.485 802.674, 870.480 803.094, 883.915 " />
            <path fill="none" stroke-width="3.0" stroke-linecap="butt" stroke-opacity="1.0" stroke="rgb(0, 0, 0)" stroke-linejoin="round" d=" M 1121.078, 458.192 1111.364, 455.815 1101.651, 453.438 1091.937, 451.061 1082.224, 448.684 1072.511, 446.307 1062.797, 443.930 1053.084, 441.553 1043.371, 439.176 1033.657, 436.798 1023.944, 434.421 1014.271, 432.054 " />
            <path fill="none" stroke-width="3.0" stroke-linecap="butt" stroke-opacity="1.0" stroke="rgb(0, 0, 0)" stroke-linejoin="round" d=" M 970.977, 449.091 980.282, 445.429 989.588, 441.767 998.893, 438.105 1008.199, 434.444 1014.271, 432.054 1014.172, 442.054 1014.073, 452.053 1013.973, 462.053 1013.874, 472.052 1013.775, 482.052 1013.676, 492.051 1013.577, 502.051 1013.477, 512.050 1013.378, 522.050 1013.279, 532.049 1013.180, 542.049 1013.081, 552.048 1012.981, 562.048 1012.882, 572.047 1012.783, 582.047 1012.684, 592.046 1012.585, 602.046 1012.485, 612.045 1012.386, 622.045 1012.287, 632.044 1012.188, 642.044 1012.089, 652.043 1011.989, 662.043 1011.890, 672.042 1011.791, 682.042 1011.692, 692.041 1011.592, 702.041 1011.493, 712.040 1011.394, 722.040 1011.295, 732.039 1011.196, 742.039 1011.096, 752.038 1010.997, 762.038 1010.953, 766.517 " />
            <path fill="none" stroke-width="3.0" stroke-linecap="butt" stroke-opacity="1.0" stroke="rgb(0, 0, 0)" stroke-linejoin="round" d=" M 994.090, 774.966 1003.031, 770.486 1010.953, 766.517 1020.499, 769.497 1030.044, 772.476 1039.590, 775.456 1049.136, 778.435 1058.682, 781.415 1068.228, 784.394 1077.773, 787.374 1087.319, 790.353 1096.865, 793.333 1106.411, 796.312 1111.031, 797.754 1120.071, 793.479 1129.111, 789.204 1138.151, 784.928 1147.191, 780.653 1156.231, 776.378 1165.271, 772.103 1174.311, 767.827 1183.351, 763.552 1190.750, 760.053 1191.198, 750.063 1191.646, 740.073 1192.094, 730.083 1192.543, 720.093 1192.991, 710.103 1193.439, 700.113 1193.888, 690.123 1194.030, 686.941 1194.479, 676.951 1194.927, 666.961 1195.375, 656.971 1195.823, 646.981 1196.272, 636.991 1196.720, 627.001 1197.168, 617.011 1197.617, 607.021 1198.065, 597.031 1198.513, 587.041 1198.961, 577.051 1199.410, 567.061 1199.858, 557.071 1200.306, 547.081 1200.754, 537.091 1201.203, 527.102 1201.651, 517.112 1202.099, 507.122 1202.547, 497.132 1202.996, 487.142 1203.444, 477.152 1203.892, 467.162 1204.341, 457.172 1204.789, 447.182 1205.237, 437.192 1205.710, 426.654 1198.047, 420.229 1194.239, 417.037 1186.576, 410.612 1178.913, 404.188 1171.249, 397.763 1163.586, 391.339 1155.923, 384.914 1153.458, 382.847 " />
            <path fill="none" stroke-width="3.0" stroke-linecap="butt" stroke-opacity="1.0" stroke="rgb(0, 0, 0)" stroke-linejoin="round" d=" M 1111.031, 797.754 1111.327, 787.759 1111.622, 777.763 1111.918, 767.767 1112.214, 757.772 1112.510, 747.776 1112.805, 737.780 1113.101, 727.785 1113.397, 717.789 1113.693, 707.794 1113.988, 697.798 1114.284, 687.802 1114.580, 677.807 1114.875, 667.811 1115.171, 657.815 1115.467, 647.820 1115.763, 637.824 1116.058, 627.829 1116.354, 617.833 1116.650, 607.837 1116.946, 597.842 1117.241, 587.846 1117.537, 577.850 1117.833, 567.855 1118.129, 557.859 1118.424, 547.864 1118.720, 537.868 1119.016, 527.872 1119.312, 517.877 1119.607, 507.881 1119.903, 497.885 1120.199, 487.890 1120.495, 477.894 1120.790, 467.899 1121.078, 458.192 1130.448, 454.701 1139.818, 451.208 1149.189, 447.717 1151.211, 446.963 1160.581, 443.471 1169.952, 439.979 1179.322, 436.487 1188.693, 432.995 1198.063, 429.503 1205.710, 426.654 " />
            <path fill="none" stroke-width="3.0" stroke-linecap="butt" stroke-opacity="1.0" stroke="rgb(0, 0, 0)" stroke-linejoin="round" d=" M 1194.239, 417.037 1194.666, 407.046 1195.092, 397.055 1195.519, 387.064 1195.946, 377.073 1196.276, 369.329 1186.740, 372.340 1177.204, 375.350 1167.668, 378.361 1158.132, 381.372 1153.458, 382.847 " />
            <path fill="none" stroke-width="3.0" stroke-linecap="butt" stroke-opacity="1.0" stroke="rgb(0, 0, 0)" stroke-linejoin="round" d=" M 1828.105, 248.406 1826.692, 248.553 " />
            <path fill="none" stroke-width="3.0" stroke-linecap="butt" stroke-opacity="1.0" stroke="rgb(0, 0, 0)" stroke-linejoin="round" d=" M 1396.576, 620.499 1397.400, 610.533 1398.224, 600.566 1399.047, 590.600 1399.871, 580.634 1400.695, 570.668 1401.518, 560.702 1402.342, 550.736 1403.166, 540.770 1403.990, 530.804 1404.813, 520.838 1405.637, 510.872 1406.461, 500.906 1407.285, 490.940 1408.108, 480.974 1408.932, 471.008 1409.756, 461.042 1410.580, 451.076 1411.403, 441.110 1412.227, 431.144 1413.051, 421.178 1413.875, 411.212 1414.698, 401.246 1415.522, 391.280 1416.346, 381.314 1417.170, 371.348 1417.993, 361.382 1418.817, 351.416 1419.641, 341.450 1420.465, 331.484 1421.288, 321.518 1422.177, 310.773 1412.425, 312.990 1402.674, 315.207 1392.923, 317.424 1383.172, 319.642 1374.038, 321.719 " />
            <path fill="none" stroke-width="3.0" stroke-linecap="butt" stroke-opacity="1.0" stroke="rgb(0, 0, 0)" stroke-linejoin="round" d=" M 1597.494, 277.814 1607.379, 276.304 1617.264, 274.794 1627.150, 273.283 1637.035, 271.773 1646.920, 270.263 1651.717, 269.530 1650.499, 279.455 1649.280, 289.380 1648.061, 299.306 1646.842, 309.231 1645.623, 319.157 1644.404, 329.082 1643.185, 339.008 1641.967, 348.933 1640.748, 358.859 1639.529, 368.784 1638.310, 378.709 1637.091, 388.635 1635.872, 398.560 1634.654, 408.486 1633.435, 418.411 1632.216, 428.337 1630.997, 438.262 1629.778, 448.188 1628.559, 458.113 1627.340, 468.038 1626.122, 477.964 1624.903, 487.889 1623.684, 497.815 1622.465, 507.740 1621.246, 517.666 1620.027, 527.591 1618.809, 537.517 1617.590, 547.442 1616.371, 557.367 1615.152, 567.293 1614.766, 570.435 " />
            <path fill="none" stroke-width="3.0" stroke-linecap="butt" stroke-opacity="1.0" stroke="rgb(0, 0, 0)" stroke-linejoin="round" d=" M 970.887, 493.507 970.908, 483.507 970.928, 473.507 970.948, 463.507 970.968, 453.507 970.977, 449.091 961.764, 452.979 952.551, 456.868 943.338, 460.757 934.125, 464.645 932.891, 465.166 " />
            <path fill="none" stroke-width="3.0" stroke-linecap="butt" stroke-opacity="1.0" stroke="rgb(0, 0, 0)" stroke-linejoin="round" d=" M 744.766, 598.302 744.361, 588.310 743.955, 578.318 743.550, 568.327 743.144, 558.335 743.049, 555.989 734.296, 560.825 725.544, 565.661 716.791, 570.497 709.256, 574.660 " />
            <path fill="none" stroke-width="3.0" stroke-linecap="butt" stroke-opacity="1.0" stroke="rgb(0, 0, 0)" stroke-linejoin="round" d=" M 1814.146, 541.121 1821.960, 540.231 1823.547, 530.357 1825.134, 520.484 1826.721, 510.611 1828.308, 500.738 1829.896, 490.864 1831.483, 480.991 1833.070, 471.118 1834.657, 461.245 1836.244, 451.371 1837.831, 441.498 1839.418, 431.625 1841.005, 421.752 1842.592, 411.878 1844.179, 402.005 1845.767, 392.132 1847.354, 382.259 1848.941, 372.385 1850.528, 362.512 1852.115, 352.639 1853.702, 342.766 1855.289, 332.892 1856.876, 323.019 1858.464, 313.146 1860.051, 303.273 1861.638, 293.399 1863.225, 283.526 1864.812, 273.653 1866.399, 263.780 1867.986, 253.906 1869.461, 244.730 1859.825, 242.057 1850.189, 239.385 1840.552, 236.712 1830.916, 234.039 1821.280, 231.367 1811.644, 228.694 1802.008, 226.022 1792.371, 223.349 1782.735, 220.677 1773.099, 218.004 1763.463, 215.331 1753.826, 212.659 1744.190, 209.986 1734.554, 207.314 1724.917, 204.641 1715.281, 201.968 1705.645, 199.296 1696.009, 196.623 1686.373, 193.951 1676.736, 191.278 1667.100, 188.605 1657.464, 185.933 1647.828, 183.260 1638.191, 180.588 1628.555, 177.915 1618.919, 175.242 1608.633, 172.390 1602.794, 172.602 1592.797, 172.849 1592.281, 172.862 1582.282, 172.992 1581.664, 173.001 1571.664, 173.018 1570.957, 173.019 1560.957, 172.925 1560.179, 172.917 1550.182, 172.712 1549.349, 172.695 1539.354, 172.380 1538.480, 172.353 1528.489, 171.930 1527.592, 171.892 1517.606, 171.361 1516.701, 171.313 1506.721, 170.673 1505.826, 170.616 1495.854, 169.869 1494.984, 169.804 1485.021, 168.949 1484.191, 168.878 1474.237, 167.913 1473.464, 167.839 1463.522, 166.765 1462.822, 166.689 1452.892, 165.505 1452.276, 165.432 1442.361, 164.135 1441.849, 164.068 1431.949, 162.659 1431.551, 162.602 1421.668, 161.077 1421.399, 161.035 1411.535, 159.391 1411.410, 159.371 1401.596, 157.612 1391.973, 155.762 1382.553, 153.824 1373.350, 151.801 1364.376, 149.697 1363.236, 149.413 1353.766, 152.627 1344.297, 155.841 1334.828, 159.055 1325.358, 162.269 1315.889, 165.484 1315.075, 165.760 1314.082, 166.097 1306.743, 168.588 1299.725, 170.970 1293.035, 173.240 1286.678, 175.398 1280.660, 177.441 1274.983, 179.368 1269.653, 181.177 1264.672, 182.867 1260.040, 184.440 1255.764, 185.891 1251.841, 187.222 1248.274, 188.433 1245.063, 189.523 1242.208, 190.492 1239.707, 191.341 1237.561, 192.069 1235.767, 192.678 1234.323, 193.168 1233.226, 193.541 1232.596, 193.754 1232.474, 193.796 1232.261, 193.868 1232.066, 193.934 1231.995, 193.958 1222.526, 197.172 1213.056, 200.386 1203.587, 203.601 1194.117, 206.815 1184.648, 210.029 1175.179, 213.243 1165.709, 216.457 1156.240, 219.671 1146.770, 222.885 1137.301, 226.099 1127.832, 229.313 1118.362, 232.527 1108.893, 235.741 1099.423, 238.955 1089.954, 242.169 1080.484, 245.383 1071.015, 248.598 1061.546, 251.812 1052.076, 255.026 1042.213, 258.374 1032.743, 261.588 1023.274, 264.802 1020.422, 265.770 1013.252, 268.203 1003.782, 271.417 994.313, 274.631 993.837, 274.793 993.321, 274.968 983.852, 278.182 974.383, 281.396 964.913, 284.610 964.592, 284.719 955.123, 287.933 945.654, 291.147 936.184, 294.361 934.242, 295.020 924.773, 298.234 920.514, 299.680 912.398, 302.435 902.928, 305.649 893.459, 308.863 892.691, 309.123 883.222, 312.338 875.579, 314.932 866.110, 318.146 856.641, 321.360 847.171, 324.574 837.702, 327.788 828.232, 331.002 818.763, 334.216 810.044, 337.175 807.567, 338.016 798.097, 341.230 788.628, 344.444 784.903, 345.709 775.434, 348.923 765.964, 352.137 758.151, 354.789 750.106, 357.519 740.637, 360.733 731.167, 363.947 721.698, 367.161 712.229, 370.375 702.759, 373.590 693.290, 376.804 683.820, 380.018 674.351, 383.232 669.591, 384.847 660.121, 388.062 650.652, 391.276 641.183, 394.490 637.284, 395.813 627.815, 399.027 618.345, 402.241 608.876, 405.455 603.470, 407.290 601.924, 407.815 592.455, 411.029 582.985, 414.243 573.516, 417.457 564.047, 420.671 563.478, 420.864 554.008, 424.078 544.539, 427.292 535.069, 430.506 525.600, 433.720 516.130, 436.934 506.661, 440.148 497.192, 443.362 490.109, 445.767 480.639, 448.981 471.170, 452.195 461.701, 455.409 452.231, 458.623 442.762, 461.837 433.292, 465.051 423.359, 468.422 413.890, 471.636 407.172, 473.917 397.702, 477.131 388.233, 480.345 378.763, 483.559 376.880, 484.198 367.411, 487.412 357.941, 490.626 348.472, 493.840 339.002, 497.055 334.294, 498.653 324.825, 501.867 315.355, 505.081 311.008, 506.556 312.202, 516.485 313.396, 526.413 314.590, 536.342 315.784, 546.270 316.979, 556.199 318.173, 566.127 319.367, 576.055 320.561, 585.984 321.755, 595.912 322.949, 605.841 323.601, 611.260 324.795, 621.189 325.990, 631.117 327.184, 641.046 327.619, 644.669 328.814, 654.597 330.008, 664.526 331.202, 674.454 332.396, 684.383 332.683, 686.771 " />
            <path fill="none" stroke-width="3.0" stroke-linecap="butt" stroke-opacity="1.0" stroke="rgb(0, 0, 0)" stroke-linejoin="round" d=" M 1869.461, 244.730 1859.500, 245.615 1849.540, 246.501 1839.579, 247.386 1829.618, 248.271 1828.105, 248.406 1827.849, 250.072 " />
            <path fill="none" stroke-width="3.0" stroke-linecap="butt" stroke-opacity="1.0" stroke="rgb(0, 0, 0)" stroke-linejoin="round" d=" M 1238.026, 80.032 1238.503, 70.043 1238.518, 69.739 1228.882, 67.066 1219.245, 64.394 1209.609, 61.721 1199.973, 59.049 1190.337, 56.376 1180.700, 53.703 1171.064, 51.031 1161.428, 48.358 1151.792, 45.686 1142.155, 43.013 1132.519, 40.340 1122.883, 37.668 1113.247, 34.995 1103.610, 32.323 1093.974, 29.650 1084.338, 26.978 1074.702, 24.305 1065.065, 21.632 1055.429, 18.960 1045.793, 16.287 1042.831, 15.466 1032.831, 15.472 1022.831, 15.478 1012.831, 15.484 1002.831, 15.491 992.831, 15.497 982.831, 15.503 980.678, 15.505 972.989, 21.897 965.299, 28.290 957.609, 34.683 956.416, 35.675 956.422, 45.675 956.428, 55.675 956.434, 65.675 956.436, 68.465 " />
            <path fill="none" stroke-width="3.0" stroke-linecap="butt" stroke-opacity="1.0" stroke="rgb(0, 0, 0)" stroke-linejoin="round" d=" M 872.740, 126.968 872.589, 116.969 872.437, 106.970 872.286, 96.971 872.155, 88.272 880.863, 83.355 889.571, 78.438 898.278, 73.522 906.986, 68.605 910.394, 66.681 920.386, 67.068 930.379, 67.455 940.371, 67.843 950.364, 68.230 956.436, 68.465 966.428, 68.853 976.421, 69.240 980.489, 69.398 990.482, 69.785 994.535, 69.942 995.070, 69.598 1003.224, 63.808 1011.377, 58.018 1015.265, 55.258 1022.741, 49.347 1012.947, 47.328 1003.153, 45.309 993.359, 43.290 983.565, 41.271 973.771, 39.253 963.977, 37.234 956.416, 35.675 " />
            <path fill="none" stroke-width="3.0" stroke-linecap="butt" stroke-opacity="1.0" stroke="rgb(0, 0, 0)" stroke-linejoin="round" d=" M 752.037, 186.761 751.674, 176.767 751.310, 166.774 750.946, 156.780 750.583, 146.787 750.469, 143.653 759.689, 139.782 768.910, 135.911 778.130, 132.041 787.351, 128.170 796.571, 124.299 804.222, 121.088 814.185, 121.943 824.148, 122.798 834.112, 123.653 844.075, 124.508 854.038, 125.363 864.002, 126.218 872.740, 126.968 882.703, 127.823 890.518, 128.494 899.464, 124.025 908.410, 119.557 910.833, 118.347 919.206, 114.164 928.003, 109.408 933.376, 106.503 923.792, 103.649 914.208, 100.795 904.624, 97.940 895.040, 95.086 885.456, 92.232 875.872, 89.378 872.155, 88.272 " />
            <path fill="none" stroke-width="3.0" stroke-linecap="butt" stroke-opacity="1.0" stroke="rgb(0, 0, 0)" stroke-linejoin="round" d=" M 591.024, 240.562 590.374, 230.583 589.724, 220.604 589.074, 210.625 588.401, 200.310 597.911, 197.217 607.420, 194.124 616.930, 191.030 626.440, 187.937 635.949, 184.844 645.459, 181.750 654.968, 178.657 658.675, 177.451 668.570, 178.896 678.465, 180.341 688.360, 181.786 698.255, 183.230 708.150, 184.675 718.045, 186.120 727.940, 187.565 737.835, 189.009 743.760, 189.874 752.037, 186.761 761.397, 183.239 770.756, 179.718 779.568, 176.403 788.845, 172.671 798.123, 168.939 802.882, 167.024 793.749, 162.951 784.616, 158.879 775.483, 154.806 766.350, 150.734 757.216, 146.661 750.469, 143.653 " />
            <path fill="none" stroke-width="3.0" stroke-linecap="butt" stroke-opacity="1.0" stroke="rgb(0, 0, 0)" stroke-linejoin="round" d=" M 388.939, 294.881 387.926, 284.933 386.913, 274.984 385.899, 265.036 384.991, 256.115 394.679, 253.637 404.367, 251.160 414.056, 248.682 423.744, 246.204 433.432, 243.726 443.120, 241.248 452.808, 238.771 462.496, 236.293 471.864, 233.897 481.609, 236.138 491.355, 238.380 501.101, 240.621 510.846, 242.862 520.592, 245.103 530.337, 247.345 540.083, 249.586 549.829, 251.827 551.274, 252.160 560.874, 249.359 570.473, 246.558 580.073, 243.757 589.673, 240.956 591.024, 240.562 592.622, 240.096 602.172, 237.130 611.723, 234.165 621.273, 231.199 627.523, 229.258 619.485, 223.310 611.446, 217.362 603.407, 211.414 595.369, 205.466 588.401, 200.310 " />
            <path fill="none" stroke-width="3.0" stroke-linecap="butt" stroke-opacity="1.0" stroke="rgb(0, 0, 0)" stroke-linejoin="round" d=" M 405.818, 290.797 400.670, 282.224 395.521, 273.651 390.373, 265.078 385.225, 256.505 384.991, 256.115 " />
            <path fill="none" stroke-width="3.0" stroke-linecap="butt" stroke-opacity="1.0" stroke="rgb(0, 0, 0)" stroke-linejoin="round" d=" M 1316.922, 135.918 1307.423, 139.043 1297.924, 142.168 1288.425, 145.293 1278.926, 148.418 1269.427, 151.544 1259.927, 154.669 1250.428, 157.794 1240.929, 160.919 1234.056, 163.180 1233.452, 163.379 1223.953, 166.504 1214.454, 169.629 1204.955, 172.754 1195.456, 175.879 1185.957, 179.005 1176.457, 182.130 1166.958, 185.255 1157.459, 188.380 1147.960, 191.505 1138.461, 194.630 1128.962, 197.755 1119.463, 200.880 1109.963, 204.006 1100.464, 207.131 1090.965, 210.256 1081.466, 213.381 1071.967, 216.506 1062.468, 219.631 1052.969, 222.756 1043.469, 225.882 1033.970, 229.007 1024.471, 232.132 1020.769, 233.350 1011.270, 236.475 1001.771, 239.600 992.272, 242.725 982.772, 245.850 973.273, 248.976 963.774, 252.101 956.549, 254.478 947.050, 257.603 937.551, 260.728 934.090, 261.867 924.591, 264.992 915.092, 268.117 905.593, 271.242 896.094, 274.367 886.594, 277.492 877.095, 280.617 875.071, 281.283 865.572, 284.408 856.073, 287.534 846.574, 290.659 837.075, 293.784 827.575, 296.909 818.076, 300.034 808.577, 303.159 806.629, 303.800 797.130, 306.925 787.631, 310.050 778.132, 313.175 768.633, 316.301 759.134, 319.426 756.891, 320.164 747.392, 323.289 737.893, 326.414 728.394, 329.539 718.894, 332.664 709.395, 335.789 699.896, 338.914 690.397, 342.039 680.898, 345.165 671.399, 348.290 661.900, 351.415 652.401, 354.540 642.901, 357.665 635.197, 360.200 625.698, 363.325 616.199, 366.450 606.700, 369.575 599.585, 371.916 590.086, 375.041 580.586, 378.166 571.087, 381.291 561.588, 384.417 552.089, 387.542 542.590, 390.667 533.091, 393.792 523.592, 396.917 514.092, 400.042 504.593, 403.167 495.094, 406.293 485.595, 409.418 476.096, 412.543 466.597, 415.668 457.098, 418.793 447.599, 421.918 438.099, 425.043 428.600, 428.169 419.674, 431.105 410.175, 434.230 403.358, 436.473 393.859, 439.598 384.360, 442.723 374.861, 445.848 365.362, 448.973 355.863, 452.099 346.364, 455.224 336.864, 458.349 327.365, 461.474 317.866, 464.599 308.367, 467.724 298.868, 470.849 289.369, 473.975 279.870, 477.100 270.371, 480.225 268.223, 480.931 " />
            <path fill="none" stroke-width="3.0" stroke-linecap="butt" stroke-opacity="1.0" stroke="rgb(0, 0, 0)" stroke-linejoin="round" d=" M 68.905, 361.555 77.484, 366.693 86.063, 371.831 94.642, 376.970 103.221, 382.108 111.800, 387.246 120.379, 392.384 128.958, 397.522 137.537, 402.660 146.116, 407.799 154.695, 412.937 163.274, 418.075 171.853, 423.213 180.432, 428.351 189.011, 433.489 197.590, 438.628 206.169, 443.766 214.748, 448.904 223.327, 454.042 231.906, 459.180 240.485, 464.318 249.064, 469.456 257.643, 474.595 266.222, 479.733 268.223, 480.931 269.488, 490.851 270.754, 500.771 272.020, 510.690 273.286, 520.610 274.551, 530.529 275.817, 540.449 277.083, 550.368 278.349, 560.288 279.614, 570.208 280.880, 580.127 282.146, 590.047 283.412, 599.966 284.677, 609.886 285.943, 619.805 287.209, 629.725 288.474, 639.645 289.740, 649.564 290.884, 658.530 " />
            <path fill="none" stroke-width="3.0" stroke-linecap="butt" stroke-opacity="1.0" stroke="rgb(0, 0, 0)" stroke-linejoin="round" d=" M 332.683, 686.771 324.397, 681.173 316.111, 675.574 307.825, 669.976 299.539, 664.378 290.884, 658.530 300.240, 655.000 309.596, 651.470 318.953, 647.939 327.619, 644.669 " />
            <path fill="none" stroke-width="3.0" stroke-linecap="butt" stroke-opacity="1.0" stroke="rgb(0, 0, 0)" stroke-linejoin="round" d=" M 1315.075, 165.760 1315.693, 155.779 1316.311, 145.798 1316.922, 135.918 1315.965, 135.592 1308.893, 133.030 1302.129, 130.419 1295.679, 127.763 1289.549, 125.065 1283.747, 122.331 1278.274, 119.563 1273.139, 116.767 1268.343, 113.946 1263.888, 111.104 1259.782, 108.245 1256.021, 105.374 1252.610, 102.494 1249.550, 99.609 1246.841, 96.722 1244.483, 93.837 1242.476, 90.959 1240.818, 88.090 1239.509, 85.234 1238.545, 82.394 1238.026, 80.032 1237.926, 79.575 1237.781, 78.113 1237.649, 76.777 1237.711, 74.006 " />
            <path fill="none" stroke-width="3.0" stroke-linecap="butt" stroke-opacity="1.0" stroke="rgb(0, 0, 0)" stroke-linejoin="round" d=" M 1238.518, 69.739 1238.108, 71.264 " />
            <path fill="none" stroke-width="3.0" stroke-linecap="butt" stroke-opacity="1.0" stroke="rgb(0, 0, 0)" stroke-linejoin="round" d=" M 1237.711, 74.006 1238.108, 71.264 1237.781, 78.113 " />
        </g>
    </g>
</svg>
