<?xml version='1.0' encoding='ascii'?>
<svg xmlns="http://www.w3.org/2000/svg" version="1.1" width="1920" height="1080">
    <g id="ViewLayer_LineSet" xmlns:inkscape="http://www.inkscape.org/namespaces/inkscape" inkscape:groupmode="lineset" inkscape:label="ViewLayer_LineSet">
        <g xmlns:inkscape="http://www.inkscape.org/namespaces/inkscape" inkscape:groupmode="layer" id="strokes" inkscape:label="strokes">
            <path fill="none" stroke-width="3.0" stroke-linecap="butt" stroke-opacity="1.0" stroke="rgb(0, 0, 0)" stroke-linejoin="round" d=" M 1049.449, 375.122 1059.194, 377.368 1060.944, 377.771 1070.688, 380.017 1080.433, 382.263 1090.177, 384.509 1099.922, 386.754 1100.547, 386.898 1110.291, 389.144 1120.036, 391.390 1129.780, 393.636 1139.525, 395.882 1148.777, 398.014 1158.521, 400.260 1168.266, 402.505 1178.010, 404.751 1182.367, 405.755 1187.874, 407.025 1197.619, 409.270 1207.364, 411.516 1211.671, 412.509 1221.416, 414.755 1231.160, 417.001 1240.905, 419.246 1250.649, 421.492 1251.693, 421.733 1261.438, 423.979 1271.182, 426.224 1280.927, 428.470 1288.934, 430.315 1298.678, 432.561 1308.423, 434.807 1313.996, 436.091 1323.740, 438.337 1333.485, 440.583 1343.230, 442.829 1351.899, 444.827 1361.644, 447.073 1371.388, 449.319 1381.133, 451.564 1383.137, 452.026 1392.882, 454.272 1402.626, 456.518 1412.371, 458.764 1420.446, 460.625 1430.191, 462.871 1439.935, 465.116 1449.680, 467.362 1459.424, 469.608 1469.169, 471.854 1478.914, 474.100 1488.658, 476.345 1498.403, 478.591 1508.147, 480.837 1517.892, 483.083 1527.636, 485.329 1537.381, 487.574 1547.125, 489.820 1556.870, 492.066 1566.615, 494.312 1577.853, 496.902 1587.128, 493.164 1596.403, 489.426 1605.678, 485.688 1614.953, 481.950 1624.228, 478.211 1633.503, 474.473 1642.778, 470.735 1652.053, 466.997 1661.328, 463.259 1665.950, 461.396 1666.121, 459.394 1666.970, 449.431 1667.819, 439.467 1668.365, 433.056 1658.573, 431.026 1648.781, 428.995 1638.990, 426.965 1629.198, 424.935 1619.406, 422.905 1609.614, 420.874 1599.823, 418.844 1590.031, 416.814 1580.239, 414.784 1570.447, 412.753 1560.656, 410.723 1550.864, 408.693 1541.072, 406.663 1531.281, 404.633 1521.489, 402.602 1511.697, 400.572 1501.905, 398.542 1492.114, 396.511 1482.322, 394.481 1472.530, 392.451 1462.738, 390.421 1452.947, 388.391 1443.155, 386.360 1433.363, 384.330 1424.784, 382.551 1414.993, 380.521 1405.201, 378.491 1395.409, 376.461 1388.768, 375.083 1387.080, 374.734 1377.288, 372.703 1367.496, 370.673 1357.705, 368.643 1355.517, 368.189 1351.899, 367.439 1342.108, 365.409 1332.316, 363.379 1322.524, 361.348 1317.226, 360.250 1307.435, 358.220 1297.643, 356.189 1287.851, 354.159 1278.059, 352.129 1268.268, 350.099 1258.476, 348.068 1248.684, 346.038 1238.892, 344.008 1229.101, 341.978 1219.309, 339.947 1213.896, 338.825 1204.104, 336.795 1196.047, 335.124 1186.255, 333.094 1184.315, 332.692 1174.523, 330.661 1164.732, 328.631 1157.812, 327.197 1148.021, 325.166 1138.229, 323.136 1128.437, 321.106 1118.645, 319.076 1108.854, 317.045 1099.062, 315.015 1089.270, 312.985 1079.479, 310.955 1069.687, 308.924 1059.895, 306.894 1050.103, 304.864 1040.312, 302.834 1030.520, 300.803 1020.728, 298.773 1010.936, 296.743 1001.145, 294.713 991.353, 292.682 981.561, 290.652 971.769, 288.622 961.978, 286.592 952.186, 284.561 942.394, 282.531 932.602, 280.501 922.811, 278.471 913.019, 276.440 903.227, 274.410 893.435, 272.380 883.644, 270.350 873.852, 268.320 864.060, 266.289 854.269, 264.259 844.477, 262.229 834.685, 260.198 824.893, 258.168 815.102, 256.138 805.310, 254.108 795.518, 252.078 785.726, 250.047 775.935, 248.017 766.143, 245.987 756.351, 243.957 746.559, 241.926 736.768, 239.896 726.976, 237.866 717.184, 235.836 707.393, 233.805 697.601, 231.775 687.809, 229.745 678.017, 227.715 668.226, 225.684 658.434, 223.654 648.642, 221.624 635.415, 218.881 625.623, 216.851 615.832, 214.821 613.083, 214.251 611.254, 213.872 601.462, 211.841 591.670, 209.811 589.298, 209.319 579.506, 207.289 569.715, 205.259 559.923, 203.229 550.131, 201.198 540.339, 199.168 536.211, 198.312 526.420, 196.282 516.628, 194.252 514.298, 193.769 504.506, 191.738 494.714, 189.708 489.264, 188.578 479.472, 186.548 469.681, 184.517 459.889, 182.487 458.504, 182.200 448.712, 180.170 438.920, 178.140 431.110, 176.520 421.319, 174.490 411.527, 172.460 408.947, 171.925 399.156, 169.895 389.364, 167.864 379.572, 165.834 369.780, 163.804 359.989, 161.774 350.197, 159.743 340.405, 157.713 330.613, 155.683 320.822, 153.653 311.030, 151.622 301.238, 149.592 291.447, 147.562 281.655, 145.532 271.863, 143.501 262.071, 141.471 252.280, 139.441 242.488, 137.411 232.696, 135.380 222.904, 133.350 213.113, 131.320 203.321, 129.290 193.529, 127.260 183.737, 125.229 180.413, 124.540 170.621, 122.510 160.829, 120.479 151.037, 118.449 141.246, 116.419 132.827, 114.673 129.283, 113.939 119.362, 115.190 109.441, 116.441 99.519, 117.693 89.598, 118.944 79.676, 120.196 69.755, 121.447 59.834, 122.698 49.912, 123.950 39.428, 125.272 40.489, 135.216 41.297, 142.776 51.041, 145.022 60.786, 147.268 70.530, 149.514 80.275, 151.759 90.019, 154.005 99.764, 156.251 109.509, 158.497 119.253, 160.743 128.998, 162.988 138.742, 165.234 148.487, 167.480 158.231, 169.726 167.976, 171.972 177.721, 174.217 187.465, 176.463 197.210, 178.709 206.954, 180.955 216.699, 183.201 226.443, 185.446 236.188, 187.692 245.932, 189.938 254.989, 192.025 264.815, 194.290 266.720, 204.107 268.625, 213.923 270.530, 223.740 272.435, 233.557 274.341, 243.374 276.246, 253.191 278.151, 263.008 280.056, 272.824 281.961, 282.641 283.867, 292.458 284.125, 293.788 293.774, 296.414 303.423, 299.041 305.753, 299.675 315.580, 297.819 325.406, 295.963 335.232, 294.107 345.059, 292.251 349.918, 291.334 359.744, 289.478 369.570, 287.622 370.679, 287.412 380.505, 285.556 390.331, 283.700 400.158, 281.844 409.984, 279.989 419.810, 278.133 429.636, 276.277 439.463, 274.421 449.289, 272.565 459.115, 270.709 463.636, 269.855 463.989, 275.879 473.702, 278.258 483.414, 280.638 493.127, 283.017 502.840, 285.397 512.553, 287.776 519.282, 289.425 528.995, 291.804 538.708, 294.184 540.992, 294.743 550.705, 297.123 560.417, 299.502 570.130, 301.882 579.843, 304.261 589.556, 306.641 593.566, 307.623 603.279, 310.003 612.992, 312.382 615.303, 312.948 625.016, 315.328 634.729, 317.707 644.441, 320.087 654.154, 322.466 663.867, 324.845 673.580, 327.225 683.292, 329.604 693.005, 331.984 702.718, 334.363 712.431, 336.743 722.144, 339.122 731.856, 341.502 741.569, 343.881 751.282, 346.261 760.995, 348.640 770.707, 351.019 780.420, 353.399 790.133, 355.778 799.846, 358.158 809.559, 360.537 819.271, 362.917 828.984, 365.296 838.697, 367.676 848.410, 370.055 858.123, 372.435 867.835, 374.814 877.548, 377.193 887.261, 379.573 896.974, 381.952 906.686, 384.332 916.399, 386.711 926.112, 389.091 935.825, 391.470 945.538, 393.850 955.250, 396.229 964.963, 398.608 974.676, 400.988 984.389, 403.367 994.102, 405.747 1003.814, 408.126 1014.479, 410.739 " />
            <path fill="none" stroke-width="3.0" stroke-linecap="butt" stroke-opacity="1.0" stroke="rgb(0, 0, 0)" stroke-linejoin="round" d=" M 1668.365, 433.056 1659.045, 436.681 1649.725, 440.307 1640.406, 443.932 1631.086, 447.558 1623.936, 450.339 1614.616, 453.964 1605.297, 457.590 1595.977, 461.215 1586.657, 464.841 1580.061, 467.406 " />
            <path fill="none" stroke-width="3.0" stroke-linecap="butt" stroke-opacity="1.0" stroke="rgb(0, 0, 0)" stroke-linejoin="round" d=" M 39.428, 125.272 49.190, 127.440 58.952, 129.608 68.714, 131.776 78.476, 133.944 88.239, 136.112 98.001, 138.280 107.763, 140.448 117.525, 142.616 127.287, 144.784 137.050, 146.951 146.812, 149.119 156.574, 151.287 166.336, 153.455 176.098, 155.623 185.860, 157.791 195.623, 159.959 205.385, 162.127 215.147, 164.295 224.909, 166.463 234.671, 168.631 244.434, 170.799 254.196, 172.967 263.958, 175.134 273.720, 177.302 283.482, 179.470 293.244, 181.638 303.007, 183.806 312.769, 185.974 322.531, 188.142 332.293, 190.310 337.013, 191.358 346.775, 193.526 356.538, 195.694 366.300, 197.862 376.062, 200.030 385.824, 202.198 395.586, 204.366 405.349, 206.534 415.111, 208.702 424.873, 210.869 434.635, 213.037 444.397, 215.205 454.159, 217.373 463.922, 219.541 473.684, 221.709 483.446, 223.877 491.301, 225.622 501.064, 227.789 510.826, 229.957 516.246, 231.161 526.008, 233.329 535.771, 235.497 538.080, 236.010 547.842, 238.178 557.604, 240.346 563.994, 241.765 573.756, 243.932 583.518, 246.100 586.224, 246.701 595.986, 248.869 605.748, 251.037 612.837, 252.611 622.599, 254.779 632.361, 256.947 642.124, 259.115 651.886, 261.283 661.648, 263.451 671.410, 265.619 681.172, 267.787 690.934, 269.955 700.697, 272.123 710.459, 274.291 720.221, 276.458 729.983, 278.626 739.745, 280.794 749.508, 282.962 759.270, 285.130 769.032, 287.298 778.794, 289.466 788.556, 291.634 798.318, 293.802 808.081, 295.970 817.843, 298.138 827.605, 300.306 837.367, 302.474 847.129, 304.641 856.891, 306.809 866.654, 308.977 876.416, 311.145 886.178, 313.313 895.940, 315.481 905.702, 317.649 915.465, 319.817 925.227, 321.985 934.989, 324.153 944.751, 326.321 954.513, 328.489 964.275, 330.657 974.038, 332.824 983.800, 334.992 993.562, 337.160 1003.324, 339.328 1013.086, 341.496 1022.848, 343.664 1032.611, 345.832 1042.373, 348.000 1052.135, 350.168 1061.897, 352.336 1071.659, 354.504 1081.422, 356.672 1091.184, 358.840 1100.946, 361.007 1110.708, 363.175 1120.470, 365.343 1130.232, 367.511 1140.590, 369.811 1149.370, 371.761 1159.133, 373.929 1168.895, 376.097 1178.657, 378.265 1183.074, 379.246 1188.600, 380.473 1198.362, 382.641 1208.124, 384.809 1217.886, 386.977 1227.649, 389.145 1237.411, 391.313 1247.173, 393.481 1256.935, 395.649 1266.697, 397.816 1276.459, 399.984 1286.222, 402.152 1295.984, 404.320 1305.746, 406.488 1315.508, 408.656 1325.270, 410.824 1335.033, 412.992 1344.795, 415.160 1354.557, 417.328 1364.319, 419.496 1374.081, 421.664 1383.843, 423.832 1393.606, 425.999 1403.368, 428.167 1413.130, 430.335 1422.020, 432.309 1431.782, 434.477 1441.544, 436.645 1451.306, 438.813 1461.068, 440.981 1470.830, 443.149 1480.593, 445.317 1490.355, 447.485 1500.117, 449.653 1509.879, 451.821 1519.641, 453.989 1529.404, 456.157 1539.166, 458.325 1548.928, 460.492 1558.690, 462.660 1568.452, 464.828 1578.214, 466.996 1580.061, 467.406 1579.315, 477.378 1578.568, 487.351 1577.853, 496.902 " />
            <path fill="none" stroke-width="3.0" stroke-linecap="butt" stroke-opacity="1.0" stroke="rgb(0, 0, 0)" stroke-linejoin="round" d=" M 286.593, 199.309 296.337, 201.555 306.082, 203.800 315.826, 206.046 325.571, 208.292 335.315, 210.538 344.237, 212.594 353.981, 214.840 363.726, 217.085 365.813, 217.567 375.558, 219.812 385.302, 222.058 395.047, 224.304 404.791, 226.550 414.536, 228.796 424.281, 231.041 434.025, 233.287 443.770, 235.533 453.514, 237.779 461.871, 239.705 471.615, 241.950 481.360, 244.196 491.104, 246.442 492.464, 246.755 502.208, 249.001 511.953, 251.247 512.412, 251.353 517.358, 252.493 527.102, 254.738 534.565, 256.458 539.146, 257.514 548.891, 259.760 558.635, 262.006 568.380, 264.252 578.124, 266.497 587.869, 268.743 591.919, 269.676 601.663, 271.922 611.408, 274.168 613.740, 274.706 623.485, 276.951 633.229, 279.197 642.974, 281.443 652.718, 283.689 662.463, 285.935 672.207, 288.180 681.952, 290.426 691.696, 292.672 701.441, 294.918 711.186, 297.164 720.930, 299.409 730.675, 301.655 740.419, 303.901 750.164, 306.147 759.908, 308.393 769.653, 310.638 779.397, 312.884 789.142, 315.130 798.887, 317.376 808.631, 319.622 818.376, 321.867 828.120, 324.113 837.865, 326.359 847.609, 328.605 857.354, 330.851 867.098, 333.096 876.843, 335.342 886.588, 337.588 896.332, 339.834 906.077, 342.080 915.821, 344.325 925.566, 346.571 935.310, 348.817 945.055, 351.063 954.799, 353.309 964.544, 355.554 974.289, 357.800 984.033, 360.046 993.778, 362.292 1003.522, 364.538 1010.794, 366.214 1011.619, 376.179 1012.444, 386.145 1013.155, 394.736 1013.979, 404.702 1014.479, 410.739 1015.304, 420.705 1016.128, 430.671 1016.953, 440.637 1017.778, 450.603 1018.603, 460.569 1019.427, 470.535 1020.252, 480.500 1021.077, 490.466 1021.407, 494.459 1031.056, 497.085 1040.705, 499.712 1050.354, 502.338 1059.412, 504.803 1059.291, 514.802 1059.170, 524.802 1059.050, 534.801 1058.929, 544.800 1058.809, 554.799 1058.688, 564.799 1058.567, 574.798 1058.447, 584.797 1058.326, 594.797 1058.206, 604.796 1058.085, 614.795 1057.964, 624.794 1057.844, 634.794 1057.723, 644.793 1057.603, 654.792 1057.482, 664.791 1057.361, 674.791 1057.241, 684.790 1057.120, 694.789 1057.000, 704.788 1056.879, 714.788 1056.758, 724.787 1056.638, 734.786 1056.517, 744.786 1056.396, 754.785 1056.276, 764.784 1056.155, 774.783 1056.035, 784.783 1055.914, 794.782 1055.793, 804.781 1055.673, 814.780 1055.552, 824.780 1055.432, 834.779 1055.311, 844.778 1055.191, 854.778 1055.070, 864.777 1054.949, 874.776 1054.829, 884.775 1054.708, 894.775 1054.588, 904.774 1054.467, 914.773 1054.346, 924.772 1054.183, 938.291 1063.420, 942.123 1072.657, 945.955 1081.894, 949.786 1091.020, 953.572 1099.943, 949.057 1108.866, 944.542 1117.788, 940.028 1126.711, 935.513 1135.634, 930.998 1144.557, 926.483 1153.480, 921.969 1162.403, 917.454 1171.325, 912.939 1174.090, 911.540 1174.363, 901.544 1174.636, 891.548 1174.909, 881.551 1175.182, 871.555 1175.455, 861.559 1175.729, 851.563 1176.002, 841.566 1176.275, 831.570 1176.548, 821.574 1176.821, 811.578 1177.094, 801.581 1177.367, 791.585 1177.640, 781.589 1177.913, 771.592 1178.187, 761.596 1178.460, 751.600 1178.733, 741.604 1179.006, 731.607 1179.279, 721.611 1179.552, 711.615 1179.825, 701.619 1180.099, 691.622 1180.372, 681.626 1180.645, 671.630 1180.918, 661.634 1181.191, 651.637 1181.464, 641.641 1181.737, 631.645 1182.010, 621.648 1182.283, 611.652 1182.557, 601.656 1182.830, 591.660 1183.103, 581.663 1183.376, 571.667 1183.649, 561.671 1183.922, 551.675 1184.195, 541.678 1184.469, 531.682 1184.742, 521.686 1185.015, 511.689 1185.288, 501.693 1185.561, 491.697 1185.834, 481.701 1186.107, 471.704 1186.328, 463.614 1186.601, 453.618 1186.706, 449.796 1186.914, 442.191 1187.071, 436.436 1187.344, 426.440 1187.617, 416.443 1187.874, 407.025 " />
            <path fill="none" stroke-width="3.0" stroke-linecap="butt" stroke-opacity="1.0" stroke="rgb(0, 0, 0)" stroke-linejoin="round" d=" M 1826.914, 394.978 1829.527, 395.471 1838.802, 391.733 1848.077, 387.995 1857.352, 384.257 1866.627, 380.519 1875.903, 376.781 1885.178, 373.043 1894.453, 369.305 1897.618, 368.029 1898.730, 358.091 1899.842, 348.153 1900.444, 342.776 1890.588, 341.083 1880.732, 339.389 1870.877, 337.696 1861.021, 336.003 1851.166, 334.310 1841.310, 332.616 1831.454, 330.923 1821.599, 329.230 1811.743, 327.536 1801.888, 325.843 1792.032, 324.150 1782.177, 322.456 1772.321, 320.763 1762.465, 319.070 1752.610, 317.376 1742.754, 315.683 1732.898, 313.990 1723.043, 312.297 1713.187, 310.603 1703.332, 308.910 1693.476, 307.217 1683.620, 305.523 1673.765, 303.830 1663.909, 302.137 1654.054, 300.443 1644.198, 298.750 1634.343, 297.057 1624.487, 295.364 1614.631, 293.670 1604.776, 291.977 1594.920, 290.284 1585.065, 288.590 1575.209, 286.897 1565.353, 285.204 1555.498, 283.510 1545.642, 281.817 1535.787, 280.124 1525.931, 278.431 1516.075, 276.737 1506.220, 275.044 1496.364, 273.351 1486.509, 271.657 1476.653, 269.964 1466.797, 268.271 1456.942, 266.577 1447.086, 264.884 1437.231, 263.191 1427.375, 261.497 1417.520, 259.804 1407.664, 258.111 1397.808, 256.418 1387.953, 254.724 1378.097, 253.031 1368.242, 251.338 1358.386, 249.644 1348.530, 247.951 1338.675, 246.258 1328.819, 244.565 1318.964, 242.871 1309.108, 241.178 1299.252, 239.485 1289.397, 237.791 1279.541, 236.098 1269.686, 234.405 1259.830, 232.711 1249.974, 231.018 1240.119, 229.325 1230.263, 227.631 1220.408, 225.938 1210.552, 224.245 1200.696, 222.552 1190.841, 220.858 1180.985, 219.165 1171.130, 217.472 1161.274, 215.778 1151.418, 214.085 1141.563, 212.392 1131.707, 210.698 1121.852, 209.005 1111.996, 207.312 1102.141, 205.619 1092.285, 203.925 1082.429, 202.232 1072.574, 200.539 1062.718, 198.845 1052.863, 197.152 1043.007, 195.459 1033.151, 193.765 1023.296, 192.072 1013.440, 190.379 1003.585, 188.686 993.729, 186.992 983.873, 185.299 974.018, 183.606 964.162, 181.912 954.307, 180.219 944.451, 178.526 934.595, 176.832 924.740, 175.139 914.884, 173.446 905.029, 171.753 895.173, 170.059 885.317, 168.366 875.462, 166.673 865.606, 164.979 855.751, 163.286 845.895, 161.593 836.039, 159.899 826.184, 158.206 816.328, 156.513 806.473, 154.819 796.617, 153.126 786.762, 151.433 776.906, 149.740 767.050, 148.046 757.195, 146.353 747.339, 144.660 737.484, 142.966 727.628, 141.273 717.772, 139.580 707.917, 137.886 698.061, 136.193 688.206, 134.500 678.350, 132.807 668.494, 131.113 658.639, 129.420 648.783, 127.727 638.928, 126.033 629.072, 124.340 619.216, 122.647 609.361, 120.953 599.505, 119.260 589.650, 117.567 579.794, 115.874 569.938, 114.180 560.083, 112.487 550.227, 110.794 540.372, 109.100 530.516, 107.407 520.660, 105.714 510.805, 104.020 500.949, 102.327 491.094, 100.634 481.238, 98.940 471.383, 97.247 461.527, 95.554 451.671, 93.861 441.816, 92.167 431.960, 90.474 422.105, 88.781 412.249, 87.087 402.393, 85.394 382.580, 81.990 372.658, 83.241 362.737, 84.493 352.816, 85.744 342.894, 86.995 332.973, 88.247 323.051, 89.498 313.130, 90.750 305.433, 91.721 305.506, 92.690 " />
            <path fill="none" stroke-width="3.0" stroke-linecap="butt" stroke-opacity="1.0" stroke="rgb(0, 0, 0)" stroke-linejoin="round" d=" M 1666.121, 459.394 1669.251, 460.066 1678.526, 456.328 1687.801, 452.590 1697.076, 448.852 1706.351, 445.114 1715.626, 441.376 1724.901, 437.638 1734.176, 433.900 1743.451, 430.162 1749.797, 427.604 1749.967, 425.813 1750.912, 415.857 1751.857, 405.902 1752.382, 400.373 1742.565, 398.468 1732.748, 396.564 1722.931, 394.660 1713.114, 392.756 1703.297, 390.852 1693.480, 388.947 1683.663, 387.043 1673.846, 385.139 1664.029, 383.235 1654.212, 381.331 1644.395, 379.426 1634.578, 377.522 1624.761, 375.618 1614.944, 373.714 1605.127, 371.809 1595.310, 369.905 1585.493, 368.001 1575.676, 366.097 1565.859, 364.193 1556.042, 362.288 1546.225, 360.384 1536.408, 358.480 1526.591, 356.576 1516.774, 354.671 1506.957, 352.767 1497.140, 350.863 1487.323, 348.959 1477.506, 347.055 1467.689, 345.150 1457.872, 343.246 1448.055, 341.342 1438.238, 339.438 1427.298, 337.316 1417.481, 335.411 1407.664, 333.507 1397.847, 331.603 1394.192, 330.894 1389.364, 329.958 1379.547, 328.053 1369.730, 326.149 1359.913, 324.245 1357.612, 323.799 1357.128, 323.705 1347.311, 321.801 1337.494, 319.896 1327.677, 317.992 1319.097, 316.328 1309.280, 314.424 1299.463, 312.519 1289.646, 310.615 1287.442, 310.188 1277.625, 308.283 1267.808, 306.379 1257.991, 304.475 1249.578, 302.843 1239.761, 300.939 1229.944, 299.035 1220.127, 297.130 1210.310, 295.226 1200.493, 293.322 1190.676, 291.418 1180.859, 289.514 1171.042, 287.609 1161.225, 285.705 1151.408, 283.801 1141.591, 281.897 1131.774, 279.992 1121.957, 278.088 1112.140, 276.184 1102.323, 274.280 1092.506, 272.376 1082.689, 270.471 1072.872, 268.567 1063.055, 266.663 1053.238, 264.759 1043.421, 262.854 1033.604, 260.950 1023.786, 259.046 1013.969, 257.142 1004.152, 255.238 994.335, 253.333 984.518, 251.429 974.701, 249.525 964.884, 247.621 955.067, 245.716 945.250, 243.812 935.433, 241.908 925.616, 240.004 915.799, 238.100 905.982, 236.195 896.165, 234.291 886.348, 232.387 876.531, 230.483 866.714, 228.578 856.897, 226.674 847.080, 224.770 837.263, 222.866 827.446, 220.962 817.629, 219.057 807.812, 217.153 797.995, 215.249 788.178, 213.345 778.361, 211.440 768.544, 209.536 758.727, 207.632 748.910, 205.728 739.093, 203.824 729.276, 201.919 719.459, 200.015 709.642, 198.111 699.825, 196.207 690.008, 194.302 680.191, 192.398 670.374, 190.494 660.557, 188.590 650.740, 186.686 637.452, 184.108 627.635, 182.204 617.818, 180.300 615.038, 179.761 609.818, 178.748 600.001, 176.844 590.184, 174.940 587.785, 174.474 577.968, 172.570 568.151, 170.666 558.334, 168.762 548.517, 166.857 538.700, 164.953 534.517, 164.142 524.700, 162.238 523.349, 161.975 513.532, 160.071 512.532, 159.877 502.715, 157.973 501.002, 157.641 491.185, 155.737 481.368, 153.832 471.551, 151.928 461.734, 150.024 451.917, 148.120 442.100, 146.216 432.283, 144.311 422.466, 142.407 412.649, 140.503 402.832, 138.599 393.015, 136.694 383.198, 134.790 373.381, 132.886 363.564, 130.982 353.747, 129.078 343.930, 127.173 334.113, 125.269 324.296, 123.365 314.479, 121.461 304.662, 119.556 294.845, 117.652 285.028, 115.748 275.211, 113.844 269.886, 112.811 260.069, 110.907 250.252, 109.003 240.435, 107.098 230.618, 105.194 221.357, 103.398 218.007, 102.748 208.085, 103.999 198.164, 105.251 188.242, 106.502 178.321, 107.753 168.400, 109.005 158.478, 110.256 148.557, 111.508 138.635, 112.759 132.716, 113.506 132.827, 114.673 " />
            <path fill="none" stroke-width="3.0" stroke-linecap="butt" stroke-opacity="1.0" stroke="rgb(0, 0, 0)" stroke-linejoin="round" d=" M 1749.967, 425.813 1752.821, 426.386 1762.096, 422.648 1771.371, 418.910 1780.646, 415.172 1789.921, 411.434 1799.196, 407.695 1808.471, 403.957 1817.746, 400.219 1826.747, 396.592 1826.914, 394.978 1827.947, 385.031 1828.979, 375.085 1829.467, 370.386 1819.629, 368.594 1809.791, 366.801 1799.953, 365.008 1790.115, 363.216 1780.277, 361.423 1770.439, 359.630 1760.601, 357.838 1750.763, 356.045 1740.925, 354.252 1731.087, 352.459 1721.249, 350.667 1711.411, 348.874 1701.573, 347.081 1691.735, 345.289 1681.897, 343.496 1672.059, 341.703 1662.221, 339.911 1652.383, 338.118 1642.545, 336.325 1632.707, 334.533 1622.869, 332.740 1613.031, 330.947 1603.193, 329.155 1593.355, 327.362 1583.517, 325.569 1573.679, 323.777 1563.841, 321.984 1554.003, 320.191 1544.165, 318.398 1534.327, 316.606 1524.489, 314.813 1514.651, 313.020 1504.813, 311.228 1494.975, 309.435 1485.137, 307.642 1475.299, 305.850 1465.461, 304.057 1455.623, 302.264 1445.785, 300.472 1435.947, 298.679 1429.510, 297.506 1419.672, 295.713 1410.496, 294.041 1400.658, 292.249 1398.973, 291.942 1391.374, 290.557 1381.536, 288.764 1371.698, 286.971 1361.737, 285.157 1351.899, 283.364 1342.061, 281.571 1334.751, 280.239 1324.913, 278.446 1315.075, 276.654 1305.237, 274.861 1295.399, 273.068 1285.561, 271.276 1275.723, 269.483 1265.885, 267.690 1256.047, 265.898 1246.209, 264.105 1236.371, 262.312 1226.533, 260.520 1216.695, 258.727 1206.857, 256.934 1197.019, 255.142 1187.181, 253.349 1177.343, 251.556 1167.505, 249.763 1157.667, 247.971 1147.829, 246.178 1137.991, 244.385 1128.153, 242.593 1118.315, 240.800 1108.477, 239.007 1098.639, 237.215 1088.801, 235.422 1078.963, 233.629 1069.125, 231.837 1059.287, 230.044 1049.449, 228.251 1039.611, 226.459 1029.773, 224.666 1019.935, 222.873 1010.097, 221.081 1000.259, 219.288 990.421, 217.495 980.583, 215.703 970.745, 213.910 960.907, 212.117 951.069, 210.325 941.231, 208.532 931.393, 206.739 921.555, 204.946 911.717, 203.154 901.879, 201.361 892.041, 199.568 882.203, 197.776 872.365, 195.983 862.527, 194.190 852.689, 192.398 842.851, 190.605 833.013, 188.812 823.175, 187.020 813.337, 185.227 803.499, 183.434 793.661, 181.642 783.823, 179.849 773.985, 178.056 764.147, 176.264 754.309, 174.471 744.471, 172.678 734.633, 170.885 724.795, 169.093 714.957, 167.300 705.119, 165.507 695.281, 163.715 685.443, 161.922 675.605, 160.129 665.767, 158.337 655.929, 156.544 639.245, 153.504 629.407, 151.711 619.569, 149.919 616.760, 149.407 610.402, 148.248 608.558, 147.912 598.720, 146.119 588.882, 144.327 586.457, 143.885 576.619, 142.092 566.781, 140.299 565.837, 140.128 555.999, 138.335 546.161, 136.542 536.323, 134.750 526.485, 132.957 516.647, 131.164 506.809, 129.371 496.971, 127.579 487.133, 125.786 477.295, 123.993 467.457, 122.201 457.619, 120.408 447.781, 118.615 437.943, 116.823 428.105, 115.030 418.267, 113.237 408.429, 111.445 398.591, 109.652 388.753, 107.859 378.915, 106.067 369.077, 104.274 359.239, 102.481 354.824, 101.677 344.986, 99.884 335.148, 98.091 325.310, 96.299 315.472, 94.506 305.506, 92.690 302.332, 92.112 292.411, 93.363 282.489, 94.614 272.568, 95.866 262.647, 97.117 252.725, 98.369 242.804, 99.620 232.882, 100.871 222.961, 102.123 221.266, 102.337 221.357, 103.398 " />
            <path fill="none" stroke-width="3.0" stroke-linecap="butt" stroke-opacity="1.0" stroke="rgb(0, 0, 0)" stroke-linejoin="round" d=" M 264.815, 194.290 274.559, 196.536 276.383, 196.956 286.127, 199.202 286.593, 199.309 288.468, 209.131 290.343, 218.954 292.218, 228.777 294.094, 238.599 295.969, 248.422 297.844, 258.244 299.719, 268.067 301.594, 277.890 303.470, 287.712 303.927, 290.107 305.753, 299.675 " />
            <path fill="none" stroke-width="3.0" stroke-linecap="butt" stroke-opacity="1.0" stroke="rgb(0, 0, 0)" stroke-linejoin="round" d=" M 1010.794, 366.214 1020.539, 368.459 1030.283, 370.705 1040.028, 372.951 1049.449, 375.122 1050.215, 385.093 1050.981, 395.063 1051.747, 405.034 1052.513, 415.005 1052.909, 420.154 1053.675, 430.124 1054.441, 440.095 1055.207, 450.065 1055.973, 460.036 1056.738, 470.007 1057.504, 479.977 1058.270, 489.948 1059.036, 499.918 1059.412, 504.803 1059.532, 494.804 1059.653, 484.805 1059.773, 474.805 1059.894, 464.806 1060.015, 454.807 1060.135, 444.807 1060.256, 434.808 1060.376, 424.809 1060.410, 421.991 1060.531, 411.992 1060.652, 401.993 1060.772, 391.993 1060.893, 381.994 1060.944, 377.771 " />
            <path fill="none" stroke-width="3.0" stroke-linecap="butt" stroke-opacity="1.0" stroke="rgb(0, 0, 0)" stroke-linejoin="round" d=" M 1900.444, 342.776 1891.124, 346.401 1881.804, 350.027 1872.484, 353.652 1863.165, 357.278 1853.845, 360.903 1844.526, 364.528 1835.206, 368.154 1832.252, 369.303 " />
            <path fill="none" stroke-width="3.0" stroke-linecap="butt" stroke-opacity="1.0" stroke="rgb(0, 0, 0)" stroke-linejoin="round" d=" M 305.433, 91.721 315.271, 93.509 325.110, 95.298 334.949, 97.087 344.788, 98.875 354.626, 100.664 364.465, 102.453 374.304, 104.242 384.142, 106.030 393.981, 107.819 403.820, 109.608 413.659, 111.397 423.497, 113.185 433.336, 114.974 443.175, 116.763 453.014, 118.551 462.852, 120.340 472.691, 122.129 482.530, 123.918 492.368, 125.706 502.207, 127.495 512.046, 129.284 521.885, 131.072 531.723, 132.861 541.562, 134.650 551.401, 136.439 561.240, 138.227 571.078, 140.016 580.917, 141.805 590.756, 143.594 600.594, 145.382 610.433, 147.171 613.592, 147.745 623.431, 149.534 633.269, 151.323 639.308, 152.421 649.147, 154.209 658.986, 155.998 668.825, 157.787 678.663, 159.576 688.502, 161.364 698.341, 163.153 708.179, 164.942 718.018, 166.730 727.857, 168.519 737.696, 170.308 747.534, 172.097 757.373, 173.885 767.212, 175.674 777.050, 177.463 786.889, 179.251 796.728, 181.040 806.567, 182.829 816.405, 184.618 826.244, 186.406 836.083, 188.195 845.922, 189.984 855.760, 191.773 865.599, 193.561 875.438, 195.350 885.276, 197.139 895.115, 198.927 904.954, 200.716 914.793, 202.505 924.631, 204.294 934.470, 206.082 944.309, 207.871 954.148, 209.660 963.986, 211.448 973.825, 213.237 983.664, 215.026 993.502, 216.815 1003.341, 218.603 1013.180, 220.392 1023.019, 222.181 1032.857, 223.970 1042.696, 225.758 1052.535, 227.547 1062.373, 229.336 1072.212, 231.124 1082.051, 232.913 1091.890, 234.702 1101.728, 236.491 1111.567, 238.279 1121.406, 240.068 1131.245, 241.857 1141.083, 243.646 1150.922, 245.434 1160.761, 247.223 1170.599, 249.012 1180.438, 250.800 1190.277, 252.589 1200.116, 254.378 1209.954, 256.167 1219.793, 257.955 1229.632, 259.744 1239.470, 261.533 1249.309, 263.321 1259.148, 265.110 1268.987, 266.899 1278.825, 268.688 1288.664, 270.476 1298.503, 272.265 1308.342, 274.054 1318.180, 275.843 1328.019, 277.631 1337.858, 279.420 1347.696, 281.209 1357.535, 282.997 1367.374, 284.786 1377.213, 286.575 1391.445, 289.162 1399.142, 290.562 1408.981, 292.350 1413.556, 293.182 1423.395, 294.971 1429.588, 296.097 1439.427, 297.886 1449.266, 299.674 1459.104, 301.463 1468.943, 303.252 1478.782, 305.041 1488.621, 306.829 1498.459, 308.618 1508.298, 310.407 1518.137, 312.196 1527.975, 313.984 1537.814, 315.773 1547.653, 317.562 1557.492, 319.350 1567.330, 321.139 1577.169, 322.928 1587.008, 324.717 1596.847, 326.505 1606.685, 328.294 1616.524, 330.083 1626.363, 331.871 1636.201, 333.660 1646.040, 335.449 1655.879, 337.238 1665.718, 339.026 1675.556, 340.815 1685.395, 342.604 1695.234, 344.393 1705.073, 346.181 1714.911, 347.970 1724.750, 349.759 1734.589, 351.547 1744.427, 353.336 1754.266, 355.125 1764.105, 356.914 1773.944, 358.702 1783.782, 360.491 1793.621, 362.280 1803.460, 364.068 1813.298, 365.857 1823.137, 367.646 1832.252, 369.303 1831.216, 379.249 1830.181, 389.195 1829.527, 395.471 " />
            <path fill="none" stroke-width="3.0" stroke-linecap="butt" stroke-opacity="1.0" stroke="rgb(0, 0, 0)" stroke-linejoin="round" d=" M 1752.382, 400.373 1743.063, 403.998 1733.743, 407.623 1724.423, 411.249 1715.104, 414.874 1708.434, 417.469 1699.114, 421.094 1689.794, 424.720 1680.475, 428.345 1671.672, 431.769 " />
            <path fill="none" stroke-width="3.0" stroke-linecap="butt" stroke-opacity="1.0" stroke="rgb(0, 0, 0)" stroke-linejoin="round" d=" M 132.716, 113.506 142.508, 115.531 152.301, 117.556 162.094, 119.581 171.887, 121.606 181.679, 123.632 191.472, 125.657 201.265, 127.682 211.058, 129.707 220.851, 131.732 230.643, 133.758 240.436, 135.783 250.229, 137.808 260.022, 139.833 269.814, 141.858 279.607, 143.884 289.400, 145.909 299.193, 147.934 308.986, 149.959 318.778, 151.984 328.571, 154.010 338.364, 156.035 348.157, 158.060 357.950, 160.085 367.742, 162.110 377.535, 164.135 387.328, 166.161 397.121, 168.186 406.913, 170.211 416.706, 172.236 426.499, 174.261 434.691, 175.956 444.484, 177.981 454.277, 180.006 464.069, 182.031 473.862, 184.056 483.655, 186.082 489.190, 187.226 498.982, 189.251 508.775, 191.277 514.227, 192.404 524.019, 194.429 533.812, 196.454 536.143, 196.936 545.936, 198.962 555.729, 200.987 565.522, 203.012 575.314, 205.037 585.107, 207.062 594.900, 209.088 604.693, 211.113 614.485, 213.138 624.278, 215.163 634.071, 217.188 635.497, 217.483 645.290, 219.508 655.082, 221.534 664.875, 223.559 674.668, 225.584 684.461, 227.609 694.254, 229.634 704.046, 231.660 713.839, 233.685 723.632, 235.710 733.425, 237.735 743.218, 239.760 753.010, 241.786 762.803, 243.811 772.596, 245.836 782.389, 247.861 792.181, 249.886 801.974, 251.911 811.767, 253.937 821.560, 255.962 831.353, 257.987 841.145, 260.012 850.938, 262.037 860.731, 264.063 870.524, 266.088 880.316, 268.113 890.109, 270.138 899.902, 272.163 909.695, 274.189 919.488, 276.214 929.280, 278.239 939.073, 280.264 948.866, 282.289 958.659, 284.315 968.452, 286.340 978.244, 288.365 988.037, 290.390 997.830, 292.415 1007.623, 294.441 1017.415, 296.466 1027.208, 298.491 1037.001, 300.516 1046.794, 302.541 1056.587, 304.567 1066.379, 306.592 1076.172, 308.617 1085.965, 310.642 1095.758, 312.667 1105.550, 314.693 1115.343, 316.718 1125.136, 318.743 1134.929, 320.768 1144.722, 322.793 1154.514, 324.818 1164.307, 326.844 1174.100, 328.869 1184.360, 330.991 1194.153, 333.016 1199.626, 334.148 1209.418, 336.173 1219.211, 338.198 1229.004, 340.223 1238.797, 342.248 1248.589, 344.274 1258.382, 346.299 1268.175, 348.324 1277.968, 350.349 1287.761, 352.374 1297.553, 354.400 1307.346, 356.425 1317.139, 358.450 1326.932, 360.475 1336.724, 362.500 1346.517, 364.526 1356.310, 366.551 1366.103, 368.576 1375.896, 370.601 1387.172, 372.933 1388.986, 373.308 1398.778, 375.333 1408.571, 377.359 1418.364, 379.384 1424.885, 380.733 1434.678, 382.758 1444.471, 384.783 1454.264, 386.808 1464.057, 388.833 1473.849, 390.859 1483.642, 392.884 1493.435, 394.909 1503.228, 396.934 1513.021, 398.959 1522.813, 400.984 1532.606, 403.010 1542.399, 405.035 1552.192, 407.060 1561.984, 409.085 1571.777, 411.110 1581.570, 413.136 1591.363, 415.161 1601.156, 417.186 1610.948, 419.211 1620.741, 421.236 1630.534, 423.262 1640.327, 425.287 1650.120, 427.312 1659.912, 429.337 1671.672, 431.769 1670.820, 441.733 1669.967, 451.696 1669.251, 460.066 " />
            <path fill="none" stroke-width="3.0" stroke-linecap="butt" stroke-opacity="1.0" stroke="rgb(0, 0, 0)" stroke-linejoin="round" d=" M 1829.467, 370.386 1820.147, 374.012 1810.828, 377.637 1801.508, 381.263 1792.188, 384.888 1786.071, 387.268 1776.751, 390.893 1767.431, 394.518 1758.112, 398.144 1755.411, 399.194 " />
            <path fill="none" stroke-width="3.0" stroke-linecap="butt" stroke-opacity="1.0" stroke="rgb(0, 0, 0)" stroke-linejoin="round" d=" M 221.266, 102.337 231.084, 104.236 240.902, 106.136 250.720, 108.036 260.538, 109.936 270.356, 111.835 280.174, 113.735 289.992, 115.635 299.809, 117.535 309.627, 119.435 319.445, 121.334 329.263, 123.234 339.081, 125.134 348.899, 127.034 358.717, 128.933 368.535, 130.833 378.353, 132.733 388.170, 134.633 397.988, 136.532 407.806, 138.432 417.624, 140.332 427.442, 142.232 437.260, 144.131 447.078, 146.031 456.896, 147.931 466.714, 149.831 476.531, 151.731 486.349, 153.630 496.167, 155.530 505.985, 157.430 512.470, 158.685 522.287, 160.584 526.725, 161.443 534.458, 162.939 544.276, 164.839 554.094, 166.739 563.912, 168.639 573.729, 170.538 583.547, 172.438 593.365, 174.338 603.183, 176.238 613.001, 178.137 622.819, 180.037 632.637, 181.937 637.524, 182.883 647.342, 184.782 657.160, 186.682 666.978, 188.582 676.795, 190.482 686.613, 192.381 696.431, 194.281 706.249, 196.181 716.067, 198.081 725.885, 199.980 735.703, 201.880 745.521, 203.780 755.339, 205.680 765.156, 207.580 774.974, 209.479 784.792, 211.379 794.610, 213.279 804.428, 215.179 814.246, 217.078 824.064, 218.978 833.882, 220.878 843.699, 222.778 853.517, 224.677 863.335, 226.577 873.153, 228.477 882.971, 230.377 892.789, 232.276 902.607, 234.176 912.425, 236.076 922.243, 237.976 932.060, 239.876 941.878, 241.775 951.696, 243.675 961.514, 245.575 971.332, 247.475 981.150, 249.374 990.968, 251.274 1000.786, 253.174 1010.604, 255.074 1020.421, 256.973 1030.239, 258.873 1040.057, 260.773 1049.875, 262.673 1059.693, 264.573 1069.511, 266.472 1079.329, 268.372 1089.147, 270.272 1098.964, 272.172 1108.782, 274.071 1118.600, 275.971 1128.418, 277.871 1138.236, 279.771 1148.054, 281.670 1157.872, 283.570 1167.690, 285.470 1177.508, 287.370 1187.325, 289.269 1197.143, 291.169 1206.961, 293.069 1216.779, 294.969 1226.597, 296.868 1236.415, 298.768 1246.233, 300.668 1256.051, 302.568 1265.869, 304.468 1275.686, 306.367 1290.756, 309.283 1300.574, 311.183 1310.392, 313.083 1320.210, 314.983 1330.028, 316.882 1339.846, 318.782 1349.664, 320.682 1359.481, 322.582 1369.299, 324.481 1379.117, 326.381 1389.444, 328.380 1394.383, 329.335 1404.201, 331.235 1414.019, 333.135 1423.837, 335.034 1427.387, 335.721 1437.204, 337.621 1447.022, 339.521 1456.840, 341.421 1466.658, 343.320 1476.476, 345.220 1486.294, 347.120 1496.112, 349.020 1505.930, 350.919 1515.748, 352.819 1525.565, 354.719 1535.383, 356.619 1545.201, 358.519 1555.019, 360.418 1564.837, 362.318 1574.655, 364.218 1584.473, 366.118 1594.291, 368.017 1604.109, 369.917 1613.926, 371.817 1623.744, 373.717 1633.562, 375.616 1643.380, 377.516 1653.198, 379.416 1663.016, 381.316 1672.834, 383.215 1682.652, 385.115 1692.469, 387.015 1702.287, 388.915 1712.105, 390.815 1721.923, 392.714 1731.741, 394.614 1741.559, 396.514 1751.377, 398.414 1755.411, 399.194 1754.463, 409.149 1753.514, 419.104 1752.821, 426.386 " />
            <path fill="none" stroke-width="3.0" stroke-linecap="butt" stroke-opacity="1.0" stroke="rgb(0, 0, 0)" stroke-linejoin="round" d=" M 254.989, 192.025 255.811, 201.992 256.632, 211.958 257.453, 221.924 258.274, 231.890 259.096, 241.856 259.917, 251.823 260.738, 261.789 261.560, 271.755 262.381, 281.721 263.202, 291.688 264.023, 301.654 264.845, 311.620 265.666, 321.586 266.487, 331.552 267.309, 341.519 268.130, 351.485 268.951, 361.451 269.773, 371.417 270.594, 381.383 271.415, 391.350 272.236, 401.316 273.058, 411.282 273.879, 421.248 274.700, 431.215 275.522, 441.181 276.343, 451.147 277.164, 461.113 277.986, 471.079 278.807, 481.046 279.628, 491.012 280.449, 500.978 281.271, 510.944 282.092, 520.910 282.913, 530.877 283.735, 540.843 284.556, 550.809 285.377, 560.775 286.198, 570.742 287.020, 580.708 287.841, 590.674 288.662, 600.640 289.484, 610.606 290.377, 621.447 299.614, 625.279 308.851, 629.110 311.007, 630.005 320.613, 627.228 330.220, 624.452 339.827, 621.676 349.434, 618.900 359.041, 616.124 368.648, 613.348 378.255, 610.571 387.862, 607.795 392.896, 606.340 392.201, 596.365 391.506, 586.389 390.811, 576.413 390.116, 566.437 389.421, 556.461 388.726, 546.485 388.031, 536.510 387.336, 526.534 386.642, 516.558 385.947, 506.582 385.252, 496.606 384.557, 486.630 383.862, 476.655 383.167, 466.679 382.472, 456.703 381.777, 446.727 381.082, 436.751 380.387, 426.776 379.692, 416.800 378.997, 406.824 378.302, 396.848 377.607, 386.872 376.912, 376.896 376.217, 366.921 375.523, 356.945 374.828, 346.969 374.133, 336.993 373.438, 327.017 372.743, 317.042 372.048, 307.066 371.353, 297.090 370.679, 287.412 " />
            <path fill="none" stroke-width="3.0" stroke-linecap="butt" stroke-opacity="1.0" stroke="rgb(0, 0, 0)" stroke-linejoin="round" d=" M 519.282, 289.425 519.803, 299.411 520.323, 309.398 520.843, 319.384 521.364, 329.371 521.884, 339.357 522.405, 349.344 522.925, 359.330 523.445, 369.317 523.966, 379.303 524.486, 389.289 525.006, 399.276 525.527, 409.262 526.047, 419.249 526.568, 429.235 527.088, 439.222 527.608, 449.208 528.129, 459.195 528.649, 469.181 529.169, 479.167 529.690, 489.154 530.210, 499.140 530.731, 509.127 531.251, 519.113 531.771, 529.100 532.292, 539.086 532.812, 549.073 532.985, 552.396 542.431, 555.680 551.876, 558.964 554.129, 559.748 563.736, 556.971 573.343, 554.195 582.949, 551.419 592.556, 548.643 602.163, 545.867 611.770, 543.091 621.377, 540.314 624.558, 539.395 624.149, 529.404 623.741, 519.412 623.333, 509.420 622.924, 499.429 622.516, 489.437 622.107, 479.445 621.699, 469.454 621.291, 459.462 620.882, 449.470 620.474, 439.479 620.066, 429.487 619.657, 419.495 619.249, 409.504 618.841, 399.512 618.432, 389.520 618.024, 379.529 617.616, 369.537 617.207, 359.545 616.799, 349.554 616.391, 339.562 615.982, 329.570 615.574, 319.579 615.303, 312.948 " />
            <path fill="none" stroke-width="3.0" stroke-linecap="butt" stroke-opacity="1.0" stroke="rgb(0, 0, 0)" stroke-linejoin="round" d=" M 284.125, 293.788 284.922, 303.756 285.719, 313.725 286.516, 323.693 287.313, 333.661 288.110, 343.629 288.907, 353.597 289.704, 363.566 290.501, 373.534 291.298, 383.502 292.095, 393.470 292.892, 403.438 293.689, 413.406 294.486, 423.375 295.283, 433.343 296.080, 443.311 296.877, 453.279 297.674, 463.247 298.471, 473.216 299.268, 483.184 300.065, 493.152 300.862, 503.120 301.659, 513.088 302.456, 523.057 303.253, 533.025 304.050, 542.993 304.847, 552.961 305.644, 562.929 306.441, 572.898 307.238, 582.866 308.035, 592.834 308.832, 602.802 309.629, 612.770 310.426, 622.738 311.007, 630.005 " />
            <path fill="none" stroke-width="3.0" stroke-linecap="butt" stroke-opacity="1.0" stroke="rgb(0, 0, 0)" stroke-linejoin="round" d=" M 1313.996, 436.091 1313.570, 446.082 1313.145, 456.073 1312.719, 466.064 1312.294, 476.055 1311.868, 486.046 1311.443, 496.037 1311.017, 506.028 1310.592, 516.019 1310.166, 526.010 1309.740, 536.001 1309.315, 545.992 1308.889, 555.983 1308.464, 565.974 1308.038, 575.965 1307.613, 585.956 1307.187, 595.947 1306.762, 605.938 1306.336, 615.928 1305.911, 625.919 1305.485, 635.910 1305.059, 645.901 1304.634, 655.892 1304.208, 665.883 1303.783, 675.874 1303.357, 685.865 1302.932, 695.856 1302.506, 705.847 1302.081, 715.838 1301.655, 725.829 1301.229, 735.820 1300.804, 745.811 1300.378, 755.802 1299.953, 765.793 1299.527, 775.784 1299.102, 785.774 1298.676, 795.765 1298.251, 805.756 1297.717, 818.286 1307.162, 821.570 1316.608, 824.854 1326.053, 828.138 1333.681, 830.790 1342.603, 826.275 1351.526, 821.761 1360.449, 817.246 1369.372, 812.731 1378.295, 808.216 1387.217, 803.701 1396.140, 799.187 1401.793, 796.327 1402.348, 786.342 1402.902, 776.357 1403.457, 766.373 1404.012, 756.388 1404.567, 746.404 1405.122, 736.419 1405.676, 726.434 1406.231, 716.450 1406.786, 706.465 1407.341, 696.481 1407.896, 686.496 1408.450, 676.511 1409.005, 666.527 1409.560, 656.542 1410.115, 646.558 1410.670, 636.573 1411.224, 626.588 1411.779, 616.604 1412.334, 606.619 1412.889, 596.635 1413.443, 586.650 1413.998, 576.665 1414.553, 566.681 1415.108, 556.696 1415.663, 546.712 1416.218, 536.727 1416.772, 526.742 1417.327, 516.758 1417.882, 506.773 1418.437, 496.789 1418.992, 486.804 1419.546, 476.819 1420.101, 466.835 1420.446, 460.625 " />
            <path fill="none" stroke-width="3.0" stroke-linecap="butt" stroke-opacity="1.0" stroke="rgb(0, 0, 0)" stroke-linejoin="round" d=" M 463.636, 269.855 463.052, 259.872 462.467, 249.889 461.871, 239.705 " />
            <path fill="none" stroke-width="3.0" stroke-linecap="butt" stroke-opacity="1.0" stroke="rgb(0, 0, 0)" stroke-linejoin="round" d=" M 540.992, 294.743 541.487, 304.731 541.982, 314.719 542.477, 324.707 542.972, 334.694 543.467, 344.682 543.962, 354.670 544.458, 364.657 544.953, 374.645 545.448, 384.633 545.943, 394.621 546.438, 404.608 546.933, 414.596 547.428, 424.584 547.923, 434.572 548.419, 444.559 548.914, 454.547 549.409, 464.535 549.904, 474.523 550.399, 484.510 550.894, 494.498 551.389, 504.486 551.884, 514.474 552.379, 524.461 552.875, 534.449 553.370, 544.437 553.865, 554.424 554.129, 559.748 " />
            <path fill="none" stroke-width="3.0" stroke-linecap="butt" stroke-opacity="1.0" stroke="rgb(0, 0, 0)" stroke-linejoin="round" d=" M 1100.547, 386.898 1100.378, 396.897 1100.210, 406.896 1100.042, 416.894 1099.874, 426.893 1099.794, 431.640 1099.626, 441.638 1099.458, 451.637 1099.290, 461.635 1099.122, 471.634 1098.954, 481.633 1098.786, 491.631 1098.618, 501.630 1098.450, 511.628 1098.281, 521.627 1098.113, 531.625 1097.945, 541.624 1097.777, 551.623 1097.609, 561.621 1097.441, 571.620 1097.273, 581.618 1097.105, 591.617 1096.937, 601.616 1096.769, 611.614 1096.601, 621.613 1096.432, 631.611 1096.264, 641.610 1096.096, 651.609 1095.928, 661.607 1095.760, 671.606 1095.592, 681.604 1095.424, 691.603 1095.256, 701.601 1095.088, 711.600 1094.920, 721.599 1094.752, 731.597 1094.584, 741.596 1094.416, 751.594 1094.247, 761.593 1094.079, 771.592 1093.911, 781.590 1093.743, 791.589 1093.575, 801.587 1093.407, 811.586 1093.239, 821.584 1093.071, 831.583 1092.903, 841.582 1092.735, 851.580 1092.567, 861.579 1092.398, 871.577 1092.230, 881.576 1092.062, 891.575 1091.894, 901.573 1091.726, 911.572 1091.558, 921.570 1091.390, 931.569 1091.222, 941.568 1091.020, 953.572 " />
            <path fill="none" stroke-width="3.0" stroke-linecap="butt" stroke-opacity="1.0" stroke="rgb(0, 0, 0)" stroke-linejoin="round" d=" M 1186.328, 463.614 1195.840, 460.528 1205.352, 457.441 1214.863, 454.354 1224.375, 451.267 1233.886, 448.180 1243.398, 445.093 1252.910, 442.006 1262.421, 438.920 1271.933, 435.833 1281.445, 432.746 1288.934, 430.315 " />
            <path fill="none" stroke-width="3.0" stroke-linecap="butt" stroke-opacity="1.0" stroke="rgb(0, 0, 0)" stroke-linejoin="round" d=" M 1351.899, 444.827 1351.428, 454.816 1350.956, 464.805 1350.485, 474.794 1350.013, 484.783 1349.542, 494.771 1349.070, 504.760 1348.599, 514.749 1348.127, 524.738 1347.656, 534.727 1347.184, 544.716 1346.713, 554.705 1346.241, 564.694 1345.770, 574.682 1345.298, 584.671 1344.827, 594.660 1344.355, 604.649 1343.884, 614.638 1343.412, 624.627 1342.941, 634.616 1342.469, 644.605 1341.998, 654.593 1341.526, 664.582 1341.055, 674.571 1340.583, 684.560 1340.112, 694.549 1339.640, 704.538 1339.169, 714.527 1338.697, 724.516 1338.226, 734.504 1337.754, 744.493 1337.282, 754.482 1336.811, 764.471 1336.339, 774.460 1335.868, 784.449 1335.396, 794.438 1334.925, 804.427 1334.453, 814.415 1333.982, 824.404 1333.681, 830.790 " />
        </g>
    </g>
</svg>
