<?xml version='1.0' encoding='ascii'?>
<svg xmlns="http://www.w3.org/2000/svg" version="1.1" width="1920" height="1080">
    <g id="ViewLayer_LineSet" xmlns:inkscape="http://www.inkscape.org/namespaces/inkscape" inkscape:groupmode="lineset" inkscape:label="ViewLayer_LineSet">
        <g xmlns:inkscape="http://www.inkscape.org/namespaces/inkscape" inkscape:groupmode="layer" id="strokes" inkscape:label="strokes">
            <path fill="none" stroke-width="3.0" stroke-linecap="butt" stroke-opacity="1.0" stroke="rgb(0, 0, 0)" stroke-linejoin="round" d=" M 705.816, 481.847 706.285, 491.836 706.753, 501.825 707.221, 511.815 707.690, 521.804 708.158, 531.793 708.627, 541.782 709.095, 551.771 709.564, 561.760 710.032, 571.749 710.267, 576.756 719.092, 581.459 727.917, 586.162 736.742, 590.864 745.568, 595.567 754.393, 600.270 763.218, 604.973 764.402, 605.604 773.639, 601.772 782.876, 597.941 789.144, 595.341 788.822, 585.346 788.500, 575.351 788.178, 565.356 787.857, 555.362 787.535, 545.367 787.213, 535.372 786.891, 525.377 786.570, 515.382 786.248, 505.387 785.926, 495.393 785.604, 485.398 785.282, 475.403 785.017, 467.166 " />
            <path fill="none" stroke-width="3.0" stroke-linecap="butt" stroke-opacity="1.0" stroke="rgb(0, 0, 0)" stroke-linejoin="round" d=" M 764.439, 150.674 765.865, 151.284 774.066, 157.006 775.054, 157.695 775.841, 158.244 784.043, 163.966 792.244, 169.687 794.126, 171.000 794.249, 171.100 794.349, 171.236 794.420, 171.401 794.459, 171.588 794.465, 171.790 794.437, 171.996 794.377, 172.199 794.287, 172.389 794.171, 172.558 794.034, 172.700 793.883, 172.806 793.723, 172.873 793.562, 172.898 783.599, 172.040 776.263, 171.408 775.493, 171.342 765.530, 170.484 760.335, 170.036 " />
            <path fill="none" stroke-width="3.0" stroke-linecap="butt" stroke-opacity="1.0" stroke="rgb(0, 0, 0)" stroke-linejoin="round" d=" M 762.889, 150.484 764.439, 150.674 767.424, 152.722 775.063, 157.961 783.309, 163.617 791.556, 169.274 793.983, 170.939 " />
            <path fill="none" stroke-width="3.0" stroke-linecap="butt" stroke-opacity="1.0" stroke="rgb(0, 0, 0)" stroke-linejoin="round" d=" M 761.281, 150.721 762.889, 150.484 768.276, 154.042 775.081, 158.538 783.425, 164.050 791.769, 169.561 793.828, 170.922 " />
            <path fill="none" stroke-width="3.0" stroke-linecap="butt" stroke-opacity="1.0" stroke="rgb(0, 0, 0)" stroke-linejoin="round" d=" M 771.905, 59.868 762.209, 62.318 752.514, 64.768 744.505, 66.792 " />
            <path fill="none" stroke-width="3.0" stroke-linecap="butt" stroke-opacity="1.0" stroke="rgb(0, 0, 0)" stroke-linejoin="round" d=" M 759.685, 151.378 761.281, 150.721 768.849, 155.447 775.108, 159.356 783.589, 164.653 792.071, 169.950 793.667, 170.947 " />
            <path fill="none" stroke-width="3.0" stroke-linecap="butt" stroke-opacity="1.0" stroke="rgb(0, 0, 0)" stroke-linejoin="round" d=" M 758.173, 152.424 759.685, 151.378 768.334, 156.398 769.155, 156.875 775.140, 160.350 783.788, 165.371 792.436, 170.392 793.507, 171.014 " />
            <path fill="none" stroke-width="3.0" stroke-linecap="butt" stroke-opacity="1.0" stroke="rgb(0, 0, 0)" stroke-linejoin="round" d=" M 756.811, 153.815 758.173, 152.424 767.004, 157.116 769.248, 158.309 775.175, 161.459 784.006, 166.151 792.837, 170.844 793.356, 171.120 " />
            <path fill="none" stroke-width="3.0" stroke-linecap="butt" stroke-opacity="1.0" stroke="rgb(0, 0, 0)" stroke-linejoin="round" d=" M 755.658, 155.489 756.811, 153.815 765.829, 158.136 769.192, 159.747 775.213, 162.633 784.231, 166.954 793.219, 171.261 " />
            <path fill="none" stroke-width="3.0" stroke-linecap="butt" stroke-opacity="1.0" stroke="rgb(0, 0, 0)" stroke-linejoin="round" d=" M 754.766, 157.373 755.658, 155.489 764.859, 159.406 769.002, 161.170 775.252, 163.830 784.453, 167.748 793.103, 171.430 " />
            <path fill="none" stroke-width="3.0" stroke-linecap="butt" stroke-opacity="1.0" stroke="rgb(0, 0, 0)" stroke-linejoin="round" d=" M 753.981, 163.430 753.909, 161.433 " />
            <path fill="none" stroke-width="3.0" stroke-linecap="butt" stroke-opacity="1.0" stroke="rgb(0, 0, 0)" stroke-linejoin="round" d=" M 792.925, 172.030 783.275, 169.409 775.362, 167.260 767.468, 165.116 757.818, 162.495 753.909, 161.433 754.175, 159.384 " />
            <path fill="none" stroke-width="3.0" stroke-linecap="butt" stroke-opacity="1.0" stroke="rgb(0, 0, 0)" stroke-linejoin="round" d=" M 792.953, 171.823 783.431, 168.769 775.327, 166.169 768.088, 163.847 758.566, 160.793 754.175, 159.384 754.766, 157.373 764.137, 160.864 768.601, 162.527 775.290, 165.018 784.661, 168.509 793.013, 171.621 " />
            <path fill="none" stroke-width="3.0" stroke-linecap="butt" stroke-opacity="1.0" stroke="rgb(0, 0, 0)" stroke-linejoin="round" d=" M 760.335, 170.036 758.785, 169.857 " />
            <path fill="none" stroke-width="3.0" stroke-linecap="butt" stroke-opacity="1.0" stroke="rgb(0, 0, 0)" stroke-linejoin="round" d=" M 793.407, 172.881 783.445, 172.011 775.493, 171.316 765.531, 170.446 760.518, 170.008 758.785, 169.857 757.357, 169.259 " />
            <path fill="none" stroke-width="3.0" stroke-linecap="butt" stroke-opacity="1.0" stroke="rgb(0, 0, 0)" stroke-linejoin="round" d=" M 793.264, 172.820 783.313, 171.833 775.484, 171.056 765.533, 170.070 762.088, 169.728 757.357, 169.259 756.113, 168.266 " />
            <path fill="none" stroke-width="3.0" stroke-linecap="butt" stroke-opacity="1.0" stroke="rgb(0, 0, 0)" stroke-linejoin="round" d=" M 793.141, 172.719 783.212, 171.525 775.469, 170.594 765.541, 169.400 763.471, 169.151 756.113, 168.266 755.108, 166.923 " />
            <path fill="none" stroke-width="3.0" stroke-linecap="butt" stroke-opacity="1.0" stroke="rgb(0, 0, 0)" stroke-linejoin="round" d=" M 793.041, 172.584 783.151, 171.108 775.449, 169.959 765.558, 168.483 764.648, 168.347 755.108, 166.923 754.386, 165.287 " />
            <path fill="none" stroke-width="3.0" stroke-linecap="butt" stroke-opacity="1.0" stroke="rgb(0, 0, 0)" stroke-linejoin="round" d=" M 792.970, 172.419 783.137, 170.601 775.424, 169.176 765.714, 167.381 755.880, 165.563 754.386, 165.287 753.981, 163.430 763.735, 165.634 766.659, 166.295 775.394, 168.269 785.149, 170.473 792.931, 172.232 " />
            <path fill="none" stroke-width="3.0" stroke-linecap="butt" stroke-opacity="1.0" stroke="rgb(0, 0, 0)" stroke-linejoin="round" d=" M 685.442, 47.356 694.941, 50.482 704.440, 53.608 714.146, 56.802 723.645, 59.927 733.143, 63.053 742.642, 66.179 744.505, 66.792 744.874, 76.785 745.243, 86.779 745.612, 96.772 745.982, 106.765 746.227, 113.416 746.596, 123.409 746.812, 129.251 747.181, 139.245 747.550, 149.238 747.919, 159.231 748.288, 169.224 748.657, 179.217 749.026, 189.210 749.395, 199.204 749.764, 209.197 749.908, 213.103 750.277, 223.096 750.646, 233.089 751.015, 243.082 751.384, 253.075 751.750, 262.968 752.119, 272.961 752.488, 282.954 752.857, 292.947 753.226, 302.940 753.595, 312.934 753.964, 322.927 754.333, 332.920 754.702, 342.913 754.946, 349.532 " />
            <path fill="none" stroke-width="3.0" stroke-linecap="butt" stroke-opacity="1.0" stroke="rgb(0, 0, 0)" stroke-linejoin="round" d=" M 802.257, 148.816 801.983, 138.819 801.815, 132.696 801.541, 122.699 801.267, 112.703 800.993, 102.707 800.719, 92.711 800.445, 82.714 800.171, 72.718 799.897, 62.722 799.626, 52.863 790.094, 49.841 780.561, 46.820 771.029, 43.798 761.496, 40.777 751.963, 37.755 742.431, 34.734 740.270, 34.049 730.552, 36.407 720.834, 38.766 713.462, 40.555 713.481, 40.998 " />
            <path fill="none" stroke-width="3.0" stroke-linecap="butt" stroke-opacity="1.0" stroke="rgb(0, 0, 0)" stroke-linejoin="round" d=" M 775.054, 157.695 774.732, 147.700 774.452, 139.005 774.131, 129.010 773.938, 123.027 773.616, 113.032 773.294, 103.037 772.973, 93.042 772.651, 83.048 772.329, 73.053 772.007, 63.058 771.905, 59.868 762.389, 56.795 752.873, 53.721 743.357, 50.647 740.861, 49.841 731.345, 46.768 721.829, 43.694 713.481, 40.998 712.690, 40.743 702.972, 43.101 693.254, 45.460 685.442, 47.356 685.463, 47.812 " />
            <path fill="none" stroke-width="3.0" stroke-linecap="butt" stroke-opacity="1.0" stroke="rgb(0, 0, 0)" stroke-linejoin="round" d=" M 754.187, 349.490 754.176, 349.195 753.805, 339.202 753.435, 329.209 753.404, 328.381 753.394, 328.098 753.023, 318.104 752.681, 308.864 752.671, 308.591 752.300, 298.597 751.930, 288.604 751.560, 278.611 751.189, 268.618 750.989, 263.205 750.664, 254.439 750.293, 244.446 749.923, 234.453 749.552, 224.460 749.195, 214.807 749.140, 213.330 748.828, 204.908 748.562, 197.743 748.192, 187.750 747.821, 177.757 747.451, 167.764 747.081, 157.771 746.710, 147.778 746.340, 137.784 746.013, 128.969 745.643, 118.976 745.426, 113.138 745.056, 103.145 744.686, 93.152 744.315, 83.159 743.945, 73.166 743.716, 66.992 741.476, 66.254 731.977, 63.127 722.479, 59.999 714.165, 57.262 713.376, 57.002 703.878, 53.875 694.379, 50.747 685.463, 47.812 684.657, 47.546 674.939, 49.905 665.221, 52.263 656.956, 54.269 657.474, 64.256 657.991, 74.243 658.509, 84.229 659.026, 94.216 659.544, 104.202 660.061, 114.189 660.579, 124.176 661.096, 134.162 661.614, 144.149 662.131, 154.135 662.649, 164.122 663.166, 174.109 663.684, 184.095 664.201, 194.082 664.719, 204.068 665.236, 214.055 665.754, 224.042 666.024, 229.254 666.440, 237.292 666.958, 247.278 667.475, 257.265 667.993, 267.251 668.308, 273.331 668.642, 279.774 669.075, 288.136 669.293, 292.337 669.810, 302.323 670.328, 312.310 670.343, 312.610 670.861, 322.597 671.378, 332.584 671.403, 333.065 671.419, 333.363 680.557, 337.424 689.695, 341.486 698.833, 345.547 699.437, 345.816 708.575, 349.878 717.714, 353.939 726.061, 357.649 727.764, 358.406 728.144, 358.278 " />
            <path fill="none" stroke-width="3.0" stroke-linecap="butt" stroke-opacity="1.0" stroke="rgb(0, 0, 0)" stroke-linejoin="round" d=" M 804.932, 246.401 814.480, 243.427 815.970, 242.963 815.920, 240.992 " />
            <path fill="none" stroke-width="3.0" stroke-linecap="butt" stroke-opacity="1.0" stroke="rgb(0, 0, 0)" stroke-linejoin="round" d=" M 709.760, 431.335 703.552, 433.552 694.134, 436.915 684.716, 440.277 675.298, 443.640 674.290, 444.000 " />
            <path fill="none" stroke-width="3.0" stroke-linecap="butt" stroke-opacity="1.0" stroke="rgb(0, 0, 0)" stroke-linejoin="round" d=" M 661.918, 437.964 670.905, 442.349 674.290, 444.000 674.813, 453.986 675.336, 463.973 675.858, 473.959 676.381, 483.945 676.835, 492.612 " />
            <path fill="none" stroke-width="3.0" stroke-linecap="butt" stroke-opacity="1.0" stroke="rgb(0, 0, 0)" stroke-linejoin="round" d=" M 427.335, 211.652 418.118, 214.143 409.195, 216.555 410.159, 226.508 411.124, 236.461 412.088, 246.415 413.052, 256.368 414.016, 266.322 414.980, 276.275 415.945, 286.228 416.475, 291.699 425.504, 295.998 425.935, 296.203 434.964, 300.502 435.684, 300.845 443.668, 304.646 452.696, 308.945 461.725, 313.244 467.934, 316.200 469.928, 317.149 477.702, 320.850 486.731, 325.149 488.366, 325.927 497.395, 330.226 506.424, 334.525 514.669, 338.451 523.698, 342.750 532.727, 347.048 541.756, 351.347 550.785, 355.646 559.814, 359.944 568.843, 364.243 577.872, 368.542 586.901, 372.841 595.929, 377.139 604.958, 381.438 613.987, 385.737 623.016, 390.036 632.045, 394.334 641.074, 398.633 650.103, 402.932 659.132, 407.231 668.161, 411.529 677.189, 415.828 686.218, 420.127 695.247, 424.426 697.342, 425.423 687.915, 428.760 678.489, 432.097 669.062, 435.435 661.918, 437.964 662.462, 447.949 663.007, 457.934 663.552, 467.920 664.096, 477.905 664.559, 486.393 673.480, 490.913 676.835, 492.612 686.209, 489.130 695.583, 485.648 704.957, 482.166 705.816, 481.847 715.190, 478.366 724.565, 474.884 730.908, 472.528 738.030, 469.882 " />
            <path fill="none" stroke-width="3.0" stroke-linecap="butt" stroke-opacity="1.0" stroke="rgb(0, 0, 0)" stroke-linejoin="round" d=" M 1080.697, 636.355 1071.641, 640.594 1062.584, 644.834 1061.926, 645.142 1060.759, 645.688 1060.759, 645.688 1060.558, 645.782 1060.557, 645.782 1060.131, 645.982 1060.131, 645.982 1060.130, 645.982 1059.237, 646.401 1059.236, 646.401 1050.179, 650.640 1041.122, 654.880 1038.230, 656.234 1038.229, 656.234 1037.592, 656.532 1037.592, 656.532 1036.406, 657.088 1027.349, 661.327 1018.265, 665.579 1009.344, 661.060 1002.454, 657.570 1002.535, 647.570 1002.616, 637.570 1002.697, 627.571 1002.778, 617.571 1002.859, 607.571 1002.886, 604.298 1012.018, 600.224 1021.150, 596.150 1030.283, 592.076 1037.399, 588.901 1039.105, 588.140 1037.422, 587.338 1028.393, 583.039 1019.364, 578.741 1010.335, 574.442 1001.306, 570.143 992.277, 565.845 983.249, 561.546 974.220, 557.247 965.191, 552.948 956.162, 548.650 947.133, 544.351 938.104, 540.052 929.075, 535.753 920.046, 531.455 911.017, 527.156 901.989, 522.857 892.960, 518.558 883.931, 514.260 874.902, 509.961 865.873, 505.662 856.844, 501.363 847.815, 497.065 838.786, 492.766 829.758, 488.467 820.729, 484.168 811.700, 479.870 802.671, 475.571 793.642, 471.272 785.017, 467.166 775.988, 462.867 767.630, 458.888 763.205, 456.781 758.830, 454.698 755.247, 452.992 750.819, 450.884 741.790, 446.585 736.984, 444.297 729.568, 440.766 724.581, 438.392 715.552, 434.093 709.760, 431.335 703.303, 428.261 697.342, 425.423 " />
            <path fill="none" stroke-width="3.0" stroke-linecap="butt" stroke-opacity="1.0" stroke="rgb(0, 0, 0)" stroke-linejoin="round" d=" M 1018.860, 612.091 1027.976, 607.980 1037.182, 603.829 1046.298, 599.718 1055.094, 595.752 " />
            <path fill="none" stroke-width="3.0" stroke-linecap="butt" stroke-opacity="1.0" stroke="rgb(0, 0, 0)" stroke-linejoin="round" d=" M 1111.172, 504.991 1111.915, 505.315 1112.710, 505.662 1121.875, 509.662 1131.040, 513.662 1137.575, 516.513 1138.366, 516.859 1147.531, 520.858 1156.697, 524.858 1165.862, 528.858 1175.027, 532.858 1184.193, 536.858 1188.991, 538.952 1188.565, 548.943 1188.138, 558.934 1187.712, 568.925 1187.285, 578.915 1187.054, 584.327 1186.628, 594.318 1186.201, 604.309 1186.063, 607.531 1185.637, 617.521 1185.210, 627.512 1185.009, 632.231 1176.005, 636.583 1167.002, 640.935 1158.562, 645.014 1149.533, 640.715 1140.504, 636.417 1134.501, 633.559 1133.728, 633.191 1124.699, 628.892 1115.670, 624.593 1110.789, 622.269 1109.428, 621.621 1108.652, 621.251 1106.544, 620.248 1097.515, 615.949 1094.952, 614.729 1090.695, 612.702 1090.094, 612.416 1089.343, 612.059 1081.342, 608.249 1072.313, 603.950 1064.669, 600.311 1062.812, 599.427 1061.077, 598.601 1061.077, 598.601 1060.775, 598.457 1060.774, 598.456 1060.127, 598.148 1060.126, 598.148 1060.126, 598.148 1058.752, 597.493 1058.751, 597.493 1055.094, 595.752 1046.065, 591.453 1039.105, 588.140 " />
            <path fill="none" stroke-width="3.0" stroke-linecap="butt" stroke-opacity="1.0" stroke="rgb(0, 0, 0)" stroke-linejoin="round" d=" M 1002.886, 604.298 1011.873, 608.683 1018.860, 612.091 1018.749, 622.090 1018.638, 632.090 1018.526, 642.089 1018.415, 652.089 1018.304, 662.088 1018.265, 665.579 " />
            <path fill="none" stroke-width="3.0" stroke-linecap="butt" stroke-opacity="1.0" stroke="rgb(0, 0, 0)" stroke-linejoin="round" d=" M 1211.372, 619.158 1211.723, 619.320 1220.727, 614.968 1229.730, 610.616 1237.233, 606.990 1237.756, 597.003 1238.279, 587.017 1238.802, 577.031 1239.324, 567.044 1239.847, 557.058 1240.370, 547.072 1240.893, 537.085 1241.416, 527.099 1241.938, 517.113 1242.051, 514.960 1232.835, 511.079 1223.619, 507.198 1214.403, 503.317 1205.187, 499.435 1195.971, 495.554 1186.755, 491.673 1177.539, 487.791 1168.323, 483.910 1164.641, 482.359 1165.008, 482.202 1165.386, 472.209 1165.764, 462.216 1166.142, 452.223 1166.312, 447.744 " />
            <path fill="none" stroke-width="3.0" stroke-linecap="butt" stroke-opacity="1.0" stroke="rgb(0, 0, 0)" stroke-linejoin="round" d=" M 1036.406, 657.088 1036.260, 667.087 1036.115, 677.085 1035.969, 687.084 1035.823, 697.083 1035.678, 707.082 1035.532, 717.081 1035.386, 727.080 1035.241, 737.079 1035.095, 747.078 1035.055, 749.827 1043.880, 754.530 1052.705, 759.233 1061.531, 763.936 1070.356, 768.638 1079.181, 773.341 1088.006, 778.044 1096.832, 782.747 1103.999, 786.566 1104.772, 786.162 " />
            <path fill="none" stroke-width="3.0" stroke-linecap="butt" stroke-opacity="1.0" stroke="rgb(0, 0, 0)" stroke-linejoin="round" d=" M 1148.619, 181.543 1139.111, 184.640 1129.603, 187.737 1120.773, 190.612 " />
            <path fill="none" stroke-width="3.0" stroke-linecap="butt" stroke-opacity="1.0" stroke="rgb(0, 0, 0)" stroke-linejoin="round" d=" M 1043.571, 165.207 1053.070, 168.333 1062.569, 171.459 1071.831, 174.507 1081.330, 177.633 1090.829, 180.758 1100.328, 183.884 1109.826, 187.010 1119.325, 190.136 1120.773, 190.612 1120.492, 200.609 1120.211, 210.605 1119.929, 220.601 1119.648, 230.597 1119.366, 240.593 1119.304, 242.811 1119.023, 252.807 1118.806, 260.513 1118.524, 270.509 1118.243, 280.505 1117.962, 290.501 1117.680, 300.497 1117.399, 310.493 1117.118, 320.489 1116.836, 330.485 1116.555, 340.481 1116.273, 350.477 1115.992, 360.473 1115.711, 370.469 1115.429, 380.465 1115.148, 390.461 1114.919, 398.593 " />
            <path fill="none" stroke-width="3.0" stroke-linecap="butt" stroke-opacity="1.0" stroke="rgb(0, 0, 0)" stroke-linejoin="round" d=" M 1141.813, 387.989 1142.142, 377.995 1142.472, 368.000 1142.523, 366.430 1142.853, 356.435 1143.154, 347.296 1143.484, 337.302 1143.813, 327.307 1144.143, 317.313 1144.472, 307.318 1144.802, 297.323 1145.131, 287.329 1145.461, 277.334 1145.703, 270.004 1146.032, 260.009 1146.291, 252.171 1146.620, 242.177 1146.950, 232.182 1147.279, 222.187 1147.609, 212.193 1147.938, 202.198 1148.268, 192.204 1148.619, 181.543 1139.103, 178.469 1129.587, 175.396 1120.071, 172.322 1110.555, 169.249 1101.039, 166.175 1099.071, 165.539 1089.555, 162.466 1080.039, 159.392 1072.176, 156.852 1071.398, 156.601 1061.844, 159.556 1052.291, 162.510 1043.571, 165.207 1043.563, 165.717 " />
            <path fill="none" stroke-width="3.0" stroke-linecap="butt" stroke-opacity="1.0" stroke="rgb(0, 0, 0)" stroke-linejoin="round" d=" M 780.867, 857.303 772.389, 852.001 763.910, 846.699 755.431, 841.397 753.532, 840.209 753.330, 835.260 752.970, 826.431 761.989, 822.111 771.007, 817.791 780.026, 813.471 786.339, 810.448 794.890, 815.632 803.442, 820.816 811.993, 826.000 820.544, 831.184 829.096, 836.368 837.647, 841.552 846.199, 846.736 854.750, 851.920 863.301, 857.104 871.853, 862.288 880.404, 867.472 888.956, 872.656 897.507, 877.839 906.058, 883.023 914.610, 888.207 923.161, 893.391 931.713, 898.575 940.264, 903.759 948.815, 908.943 957.367, 914.127 965.918, 919.311 974.470, 924.495 983.021, 929.679 991.572, 934.863 1000.216, 940.104 1000.135, 950.103 1000.100, 954.520 1005.470, 962.956 1008.285, 967.377 1008.187, 977.376 1008.144, 981.778 998.366, 983.872 988.587, 985.965 978.809, 988.059 969.031, 990.153 959.252, 992.247 949.474, 994.341 939.696, 996.435 929.917, 998.529 920.139, 1000.623 910.361, 1002.716 900.582, 1004.810 890.804, 1006.904 881.026, 1008.998 871.247, 1011.092 861.469, 1013.186 851.691, 1015.280 841.912, 1017.373 832.134, 1019.467 822.356, 1021.561 812.578, 1023.655 802.799, 1025.749 793.021, 1027.843 783.242, 1029.937 773.464, 1032.031 763.686, 1034.124 753.908, 1036.218 744.129, 1038.312 734.351, 1040.406 724.573, 1042.500 714.794, 1044.594 705.016, 1046.688 695.238, 1048.781 685.459, 1050.875 675.681, 1052.969 665.903, 1055.063 656.124, 1057.157 646.346, 1059.251 636.568, 1061.345 626.789, 1063.439 617.011, 1065.532 607.233, 1067.626 599.466, 1069.289 595.903, 1059.946 594.040, 1055.058 584.406, 1052.376 574.773, 1049.693 572.958, 1049.188 572.163, 1039.220 571.782, 1034.441 578.519, 1027.051 585.255, 1019.660 591.991, 1012.269 598.728, 1004.879 605.464, 997.488 612.200, 990.097 618.937, 982.707 625.673, 975.316 632.409, 967.925 639.146, 960.535 645.882, 953.144 652.619, 945.753 659.296, 938.427 " />
            <path fill="none" stroke-width="3.0" stroke-linecap="butt" stroke-opacity="1.0" stroke="rgb(0, 0, 0)" stroke-linejoin="round" d=" M 780.867, 857.303 788.988, 862.380 797.467, 867.682 805.946, 872.984 814.424, 878.286 822.903, 883.588 831.382, 888.890 839.861, 894.192 848.340, 899.493 856.819, 904.795 865.297, 910.097 873.776, 915.399 882.255, 920.701 890.734, 926.003 899.213, 931.305 907.692, 936.606 916.170, 941.908 924.649, 947.210 933.128, 952.512 935.098, 953.744 925.309, 955.788 915.520, 957.833 905.732, 959.878 895.943, 961.923 886.154, 963.967 876.365, 966.012 866.577, 968.057 856.788, 970.102 846.999, 972.146 837.211, 974.191 827.422, 976.236 817.633, 978.281 807.844, 980.326 798.056, 982.370 788.267, 984.415 782.230, 985.676 " />
            <path fill="none" stroke-width="3.0" stroke-linecap="butt" stroke-opacity="1.0" stroke="rgb(0, 0, 0)" stroke-linejoin="round" d=" M 1000.100, 954.520 991.367, 959.393 982.635, 964.266 973.902, 969.138 966.406, 973.321 " />
            <path fill="none" stroke-width="3.0" stroke-linecap="butt" stroke-opacity="1.0" stroke="rgb(0, 0, 0)" stroke-linejoin="round" d=" M 966.425, 958.804 966.412, 968.804 966.406, 973.321 957.927, 968.019 949.449, 962.717 940.970, 957.415 935.098, 953.744 " />
            <path fill="none" stroke-width="3.0" stroke-linecap="butt" stroke-opacity="1.0" stroke="rgb(0, 0, 0)" stroke-linejoin="round" d=" M 659.608, 943.584 659.296, 938.427 658.739, 929.227 667.698, 924.786 675.052, 921.141 681.621, 917.885 687.818, 922.061 696.111, 927.649 704.404, 933.237 710.332, 937.231 718.620, 942.815 726.913, 948.403 735.206, 953.991 743.499, 959.579 751.792, 965.167 760.086, 970.755 768.379, 976.343 776.672, 981.931 782.230, 985.676 787.218, 989.037 787.570, 999.031 787.574, 999.158 787.735, 1003.715 778.925, 1008.447 770.116, 1013.180 764.696, 1016.091 " />
            <path fill="none" stroke-width="3.0" stroke-linecap="butt" stroke-opacity="1.0" stroke="rgb(0, 0, 0)" stroke-linejoin="round" d=" M 598.359, 1054.442 608.141, 1052.365 617.922, 1050.287 627.704, 1048.209 637.486, 1046.132 647.268, 1044.054 657.050, 1041.977 666.831, 1039.899 676.613, 1037.821 686.395, 1035.744 696.177, 1033.666 705.959, 1031.589 715.740, 1029.511 725.522, 1027.433 735.304, 1025.356 745.086, 1023.278 754.868, 1021.201 764.650, 1019.123 774.431, 1017.046 784.213, 1014.968 793.995, 1012.890 803.777, 1010.813 813.559, 1008.735 823.340, 1006.658 833.122, 1004.580 842.904, 1002.502 852.686, 1000.425 862.468, 998.347 872.249, 996.270 882.031, 994.192 891.813, 992.115 901.595, 990.037 911.377, 987.959 921.158, 985.882 930.940, 983.804 940.722, 981.727 950.504, 979.649 960.286, 977.571 970.067, 975.494 979.849, 973.416 989.631, 971.339 999.413, 969.261 1008.285, 967.377 " />
            <path fill="none" stroke-width="3.0" stroke-linecap="butt" stroke-opacity="1.0" stroke="rgb(0, 0, 0)" stroke-linejoin="round" d=" M 764.107, 1001.349 764.506, 1011.341 764.696, 1016.091 756.465, 1010.412 748.234, 1004.733 740.003, 999.054 734.933, 995.556 " />
            <path fill="none" stroke-width="3.0" stroke-linecap="butt" stroke-opacity="1.0" stroke="rgb(0, 0, 0)" stroke-linejoin="round" d=" M 687.650, 962.932 695.881, 968.611 695.988, 968.685 704.219, 974.364 712.450, 980.043 720.681, 985.722 728.912, 991.401 734.933, 995.556 725.145, 997.601 715.356, 999.646 705.567, 1001.690 695.778, 1003.735 685.990, 1005.780 676.201, 1007.825 666.412, 1009.869 658.515, 1011.519 648.727, 1013.564 641.667, 1015.038 " />
            <path fill="none" stroke-width="3.0" stroke-linecap="butt" stroke-opacity="1.0" stroke="rgb(0, 0, 0)" stroke-linejoin="round" d=" M 592.924, 1040.282 596.507, 1049.618 598.359, 1054.442 599.103, 1064.414 599.466, 1069.289 " />
            <path fill="none" stroke-width="3.0" stroke-linecap="butt" stroke-opacity="1.0" stroke="rgb(0, 0, 0)" stroke-linejoin="round" d=" M 571.782, 1034.441 581.421, 1037.104 591.060, 1039.767 592.924, 1040.282 593.677, 1050.254 594.040, 1055.058 " />
            <path fill="none" stroke-width="3.0" stroke-linecap="butt" stroke-opacity="1.0" stroke="rgb(0, 0, 0)" stroke-linejoin="round" d=" M 641.667, 1015.038 648.284, 1007.541 654.901, 1000.043 661.518, 992.545 668.134, 985.047 674.751, 977.549 681.368, 970.051 687.650, 962.932 679.419, 957.253 671.189, 951.574 662.958, 945.895 659.608, 943.584 " />
            <path fill="none" stroke-width="3.0" stroke-linecap="butt" stroke-opacity="1.0" stroke="rgb(0, 0, 0)" stroke-linejoin="round" d=" M 1000.216, 940.104 993.343, 943.907 987.777, 946.987 979.028, 951.829 970.278, 956.671 966.425, 958.804 957.927, 953.534 949.428, 948.263 940.930, 942.993 932.431, 937.723 923.933, 932.452 915.434, 927.182 906.936, 921.912 898.437, 916.642 889.939, 911.371 881.440, 906.101 872.942, 900.831 864.443, 895.561 855.945, 890.290 847.446, 885.020 838.948, 879.750 830.449, 874.480 821.951, 869.209 813.452, 863.939 804.954, 858.669 796.708, 853.555 788.608, 848.532 780.109, 843.261 771.611, 837.991 765.704, 834.328 758.341, 829.762 752.970, 826.431 " />
            <path fill="none" stroke-width="3.0" stroke-linecap="butt" stroke-opacity="1.0" stroke="rgb(0, 0, 0)" stroke-linejoin="round" d=" M 787.218, 989.037 778.393, 993.739 775.397, 995.335 766.571, 1000.036 764.107, 1001.349 755.855, 995.701 747.602, 990.052 739.350, 984.404 731.098, 978.756 722.846, 973.107 714.594, 967.459 706.342, 961.811 703.628, 959.953 695.306, 954.257 687.054, 948.608 678.802, 942.960 671.228, 937.775 664.246, 932.997 658.739, 929.227 " />
            <path fill="none" stroke-width="3.0" stroke-linecap="butt" stroke-opacity="1.0" stroke="rgb(0, 0, 0)" stroke-linejoin="round" d=" M 1188.991, 538.952 1179.880, 543.072 1170.768, 547.192 1167.253, 548.781 1162.109, 551.107 " />
            <path fill="none" stroke-width="3.0" stroke-linecap="butt" stroke-opacity="1.0" stroke="rgb(0, 0, 0)" stroke-linejoin="round" d=" M 1084.661, 516.694 1093.799, 520.754 1102.937, 524.815 1112.053, 528.865 1121.192, 532.926 1130.330, 536.987 1136.805, 539.864 1142.071, 542.204 1151.210, 546.264 1160.348, 550.325 1162.109, 551.107 1161.731, 561.100 1161.354, 571.093 1160.976, 581.086 1160.599, 591.079 1160.422, 595.750 1160.296, 599.095 1159.919, 609.087 1159.541, 619.080 1159.164, 629.073 1158.786, 639.066 1158.562, 645.014 " />
            <path fill="none" stroke-width="3.0" stroke-linecap="butt" stroke-opacity="1.0" stroke="rgb(0, 0, 0)" stroke-linejoin="round" d=" M 656.734, 268.457 647.518, 264.576 638.302, 260.694 629.086, 256.813 619.870, 252.932 610.654, 249.050 601.438, 245.169 592.222, 241.288 583.006, 237.406 573.790, 233.525 564.574, 229.644 555.358, 225.763 546.142, 221.881 536.925, 218.000 527.709, 214.119 518.493, 210.237 509.277, 206.356 500.061, 202.475 490.845, 198.594 484.910, 196.094 477.225, 198.170 " />
            <path fill="none" stroke-width="3.0" stroke-linecap="butt" stroke-opacity="1.0" stroke="rgb(0, 0, 0)" stroke-linejoin="round" d=" M 1216.137, 526.678 1225.249, 522.558 1234.361, 518.438 1242.051, 514.960 " />
            <path fill="none" stroke-width="3.0" stroke-linecap="butt" stroke-opacity="1.0" stroke="rgb(0, 0, 0)" stroke-linejoin="round" d=" M 1164.641, 482.359 1155.452, 486.304 1146.263, 490.249 1139.076, 493.334 " />
            <path fill="none" stroke-width="3.0" stroke-linecap="butt" stroke-opacity="1.0" stroke="rgb(0, 0, 0)" stroke-linejoin="round" d=" M 1140.225, 458.643 1139.894, 468.637 1139.563, 478.632 1139.232, 488.626 1139.076, 493.334 1138.350, 493.023 " />
            <path fill="none" stroke-width="3.0" stroke-linecap="butt" stroke-opacity="1.0" stroke="rgb(0, 0, 0)" stroke-linejoin="round" d=" M 806.905, 331.701 797.430, 334.898 787.955, 338.095 781.675, 340.214 " />
            <path fill="none" stroke-width="3.0" stroke-linecap="butt" stroke-opacity="1.0" stroke="rgb(0, 0, 0)" stroke-linejoin="round" d=" M 776.263, 171.408 776.584, 181.403 776.904, 191.398 777.071, 196.604 777.391, 206.599 777.712, 216.594 778.032, 226.589 778.353, 236.584 778.673, 246.579 778.927, 254.502 779.248, 264.497 779.568, 274.492 779.889, 284.486 780.209, 294.481 780.529, 304.476 780.850, 314.471 781.170, 324.466 781.491, 334.461 781.675, 340.214 780.920, 339.891 " />
            <path fill="none" stroke-width="3.0" stroke-linecap="butt" stroke-opacity="1.0" stroke="rgb(0, 0, 0)" stroke-linejoin="round" d=" M 470.740, 207.250 479.931, 211.189 489.123, 215.128 498.314, 219.067 507.506, 223.006 516.698, 226.945 525.889, 230.884 535.081, 234.823 544.272, 238.761 553.464, 242.700 562.655, 246.639 571.847, 250.578 581.039, 254.517 590.230, 258.456 599.422, 262.395 608.613, 266.334 617.805, 270.273 626.996, 274.211 636.188, 278.150 645.380, 282.089 654.571, 286.028 663.763, 289.967 669.293, 292.337 " />
            <path fill="none" stroke-width="3.0" stroke-linecap="butt" stroke-opacity="1.0" stroke="rgb(0, 0, 0)" stroke-linejoin="round" d=" M 379.729, -953.788 380.573, -943.823 381.416, -933.859 382.259, -923.895 383.103, -913.930 383.946, -903.966 384.789, -894.002 385.633, -884.037 386.476, -874.073 387.319, -864.108 388.163, -854.144 389.006, -844.180 389.849, -834.215 390.693, -824.251 391.536, -814.286 392.379, -804.322 393.223, -794.358 394.066, -784.393 394.909, -774.429 395.753, -764.465 396.596, -754.500 397.439, -744.536 398.283, -734.572 399.126, -724.607 399.969, -714.643 400.813, -704.678 401.656, -694.714 402.499, -684.750 403.343, -674.785 404.186, -664.821 405.029, -654.857 405.873, -644.892 406.716, -634.928 407.559, -624.963 408.403, -614.999 409.246, -605.035 410.089, -595.070 410.933, -585.106 411.776, -575.141 412.619, -565.177 413.463, -555.213 414.306, -545.248 415.149, -535.284 415.993, -525.320 416.836, -515.355 417.679, -505.391 418.523, -495.427 419.366, -485.462 420.209, -475.498 421.053, -465.533 421.896, -455.569 422.739, -445.605 423.583, -435.640 424.426, -425.676 425.269, -415.712 426.113, -405.747 426.956, -395.783 427.799, -385.818 428.643, -375.854 429.486, -365.890 430.329, -355.925 431.173, -345.961 432.016, -335.996 432.859, -326.032 433.703, -316.068 434.546, -306.103 435.389, -296.139 436.233, -286.175 437.076, -276.210 437.919, -266.246 438.763, -256.281 439.606, -246.317 440.449, -236.353 441.293, -226.388 442.136, -216.424 442.979, -206.460 443.823, -196.495 444.666, -186.531 445.509, -176.567 446.353, -166.602 447.196, -156.638 448.039, -146.673 448.883, -136.709 449.726, -126.745 450.569, -116.780 451.413, -106.816 452.256, -96.851 453.099, -86.887 453.943, -76.923 454.786, -66.958 455.629, -56.994 456.473, -47.030 457.316, -37.065 458.159, -27.101 459.002, -17.136 459.846, -7.172 460.689, 2.792 461.532, 12.757 462.376, 22.721 463.219, 32.685 464.062, 42.650 464.906, 52.614 465.749, 62.579 466.592, 72.543 467.436, 82.507 468.279, 92.472 469.122, 102.436 469.966, 112.400 470.809, 122.365 471.652, 132.329 472.496, 142.294 473.339, 152.258 474.182, 162.222 475.026, 172.187 475.869, 182.151 477.225, 198.170 477.830, 205.320 470.740, 207.250 470.384, 207.347 479.576, 211.287 486.419, 214.220 495.610, 218.160 504.801, 222.099 505.377, 222.346 506.174, 232.314 506.892, 241.279 " />
            <path fill="none" stroke-width="3.0" stroke-linecap="butt" stroke-opacity="1.0" stroke="rgb(0, 0, 0)" stroke-linejoin="round" d=" M 444.984, 214.262 437.765, 216.227 " />
            <path fill="none" stroke-width="3.0" stroke-linecap="butt" stroke-opacity="1.0" stroke="rgb(0, 0, 0)" stroke-linejoin="round" d=" M 388.304, -322.308 389.219, -312.350 390.133, -302.392 391.048, -292.434 391.963, -282.476 392.877, -272.518 393.792, -262.560 394.706, -252.602 395.621, -242.644 396.536, -232.685 397.450, -222.727 398.365, -212.769 399.279, -202.811 400.194, -192.853 401.108, -182.895 402.023, -172.937 402.938, -162.979 403.852, -153.021 404.767, -143.063 405.681, -133.105 406.596, -123.146 407.510, -113.188 408.425, -103.230 409.340, -93.272 410.254, -83.314 411.169, -73.356 412.083, -63.398 412.998, -53.440 413.913, -43.482 414.827, -33.524 415.742, -23.566 416.656, -13.608 417.571, -3.649 418.485, 6.309 419.400, 16.267 420.315, 26.225 421.229, 36.183 422.144, 46.141 423.058, 56.099 423.973, 66.057 424.888, 76.015 425.802, 85.973 426.717, 95.931 427.631, 105.890 428.546, 115.848 429.460, 125.806 430.375, 135.764 431.290, 145.722 432.204, 155.680 433.119, 165.638 434.033, 175.596 434.948, 185.554 435.862, 195.512 437.132, 209.339 437.251, 210.633 437.765, 216.227 435.033, 215.029 427.807, 211.860 427.777, 211.533 426.846, 201.577 425.914, 191.620 424.983, 181.664 424.052, 171.707 423.121, 161.750 422.190, 151.794 421.259, 141.837 420.327, 131.881 419.396, 121.924 418.465, 111.968 417.534, 102.011 416.603, 92.055 415.672, 82.098 414.741, 72.141 413.809, 62.185 412.878, 52.228 411.947, 42.272 411.016, 32.315 410.085, 22.359 409.154, 12.402 408.222, 2.446 407.291, -7.511 406.360, -17.468 405.429, -27.424 404.498, -37.381 403.567, -47.337 402.635, -57.294 401.704, -67.250 400.773, -77.207 399.842, -87.163 398.911, -97.120 397.980, -107.077 397.048, -117.033 396.117, -126.990 395.186, -136.946 394.255, -146.903 393.324, -156.859 392.393, -166.816 391.462, -176.772 390.530, -186.729 389.599, -196.686 388.668, -206.642 387.737, -216.599 386.806, -226.555 385.875, -236.512 384.943, -246.468 384.012, -256.425 383.081, -266.381 382.150, -276.338 381.219, -286.294 380.288, -296.251 379.356, -306.208 378.297, -317.533 " />
            <path fill="none" stroke-width="3.0" stroke-linecap="butt" stroke-opacity="1.0" stroke="rgb(0, 0, 0)" stroke-linejoin="round" d=" M 409.195, 216.555 418.334, 220.615 418.752, 220.801 427.890, 224.862 428.601, 225.178 436.285, 228.592 445.423, 232.652 454.562, 236.713 463.207, 240.554 472.346, 244.615 481.484, 248.676 490.622, 252.736 499.761, 256.797 508.443, 260.655 517.581, 264.715 526.720, 268.776 535.858, 272.836 544.997, 276.897 554.135, 280.958 563.273, 285.018 572.412, 289.079 581.550, 293.140 590.689, 297.200 599.827, 301.261 608.966, 305.321 618.104, 309.382 627.243, 313.443 636.381, 317.503 645.520, 321.564 654.658, 325.625 663.796, 329.685 671.403, 333.065 " />
            <path fill="none" stroke-width="3.0" stroke-linecap="butt" stroke-opacity="1.0" stroke="rgb(0, 0, 0)" stroke-linejoin="round" d=" M 1112.142, 470.376 1111.862, 480.372 1111.826, 481.659 1111.817, 481.973 1111.537, 491.969 1111.257, 501.965 1111.172, 504.991 1111.163, 505.317 1101.974, 509.261 1092.785, 513.206 1084.661, 516.694 1084.273, 516.860 1075.135, 512.798 1065.997, 508.737 1064.583, 508.108 1061.698, 506.826 1061.698, 506.826 1061.195, 506.603 1061.194, 506.602 1060.120, 506.125 1060.119, 506.124 1060.117, 506.124 1057.835, 505.110 1057.834, 505.109 1048.696, 501.047 1043.571, 498.770 1043.569, 498.769 1041.902, 498.028 1041.902, 498.028 1038.743, 496.624 1029.605, 492.562 1020.467, 488.501 1011.467, 484.501 1011.470, 484.172 1011.565, 474.172 1011.660, 464.173 1011.685, 461.574 1011.780, 451.574 1011.875, 441.575 1011.898, 439.154 1011.992, 429.155 1012.088, 419.155 1012.097, 418.116 1012.192, 408.117 1012.287, 398.117 1012.382, 388.118 1012.477, 378.118 1012.572, 368.119 1012.667, 358.119 1012.762, 348.120 1012.857, 338.120 1012.952, 328.121 1013.047, 318.121 1013.058, 317.020 1013.153, 307.020 1013.238, 298.057 1013.333, 288.058 1013.428, 278.058 1013.523, 268.059 1013.618, 258.059 1013.713, 248.059 1013.808, 238.060 1013.903, 228.060 1013.942, 223.974 1014.037, 213.974 1014.109, 206.326 1014.204, 196.327 1014.299, 186.327 1014.394, 176.328 1014.414, 174.225 1023.968, 171.270 1033.521, 168.315 1042.768, 165.455 1043.563, 165.717 1043.606, 165.731 1043.606, 165.731 1043.614, 165.734 1043.623, 165.737 1043.623, 165.737 1053.121, 168.864 1062.620, 171.991 1069.466, 174.246 1069.681, 174.316 1069.681, 174.316 1070.055, 174.440 1070.055, 174.440 1071.045, 174.766 1071.821, 175.021 1081.319, 178.148 1090.818, 181.276 1098.628, 183.847 1108.126, 186.974 1117.624, 190.102 1119.970, 190.874 1119.690, 200.870 1119.410, 210.866 1119.130, 220.862 1118.850, 230.858 1118.570, 240.855 1118.523, 242.540 1118.243, 252.536 1118.027, 260.238 1117.747, 270.234 1117.467, 280.230 1117.187, 290.226 1116.907, 300.223 1116.627, 310.219 1116.347, 320.215 1116.067, 330.211 1115.878, 336.959 1115.598, 346.955 1115.346, 355.953 1115.066, 365.949 1114.786, 375.945 1114.506, 385.941 1114.226, 395.937 1114.144, 398.899 " />
            <path fill="none" stroke-width="3.0" stroke-linecap="butt" stroke-opacity="1.0" stroke="rgb(0, 0, 0)" stroke-linejoin="round" d=" M 754.187, 349.490 744.711, 352.687 735.236, 355.885 728.144, 358.278 737.283, 362.338 746.421, 366.399 755.560, 370.460 764.698, 374.520 773.837, 378.581 782.286, 382.335 791.425, 386.396 798.588, 389.579 807.727, 393.640 816.865, 397.700 820.521, 399.325 829.659, 403.385 838.798, 407.446 847.936, 411.507 857.075, 415.567 866.213, 419.628 875.352, 423.688 884.490, 427.749 893.629, 431.810 902.767, 435.870 911.906, 439.931 921.044, 443.992 930.182, 448.052 939.321, 452.113 948.459, 456.173 957.598, 460.234 966.736, 464.295 975.875, 468.355 985.013, 472.416 994.152, 476.477 1003.290, 480.537 1011.470, 484.172 " />
            <path fill="none" stroke-width="3.0" stroke-linecap="butt" stroke-opacity="1.0" stroke="rgb(0, 0, 0)" stroke-linejoin="round" d=" M 1012.097, 418.116 1002.881, 414.235 993.665, 410.354 984.449, 406.473 975.233, 402.591 966.017, 398.710 956.801, 394.829 947.585, 390.947 938.369, 387.066 929.153, 383.185 919.937, 379.303 910.721, 375.422 901.505, 371.541 892.289, 367.660 883.073, 363.778 873.857, 359.897 864.641, 356.016 855.425, 352.134 846.208, 348.253 836.992, 344.372 827.776, 340.491 818.560, 336.609 809.344, 332.728 806.905, 331.701 807.268, 331.578 806.994, 321.582 806.720, 311.586 806.446, 301.589 806.172, 291.593 805.897, 281.597 805.623, 271.601 805.349, 261.604 805.075, 251.608 804.932, 246.401 804.719, 238.615 804.665, 236.651 " />
            <path fill="none" stroke-width="3.0" stroke-linecap="butt" stroke-opacity="1.0" stroke="rgb(0, 0, 0)" stroke-linejoin="round" d=" M 480.199, 229.371 489.832, 226.684 499.464, 223.996 505.377, 222.346 " />
            <path fill="none" stroke-width="3.0" stroke-linecap="butt" stroke-opacity="1.0" stroke="rgb(0, 0, 0)" stroke-linejoin="round" d=" M 470.384, 207.347 460.736, 209.974 460.529, 210.030 450.880, 212.657 445.344, 214.164 " />
            <path fill="none" stroke-width="3.0" stroke-linecap="butt" stroke-opacity="1.0" stroke="rgb(0, 0, 0)" stroke-linejoin="round" d=" M 670.343, 312.610 661.178, 308.611 652.013, 304.611 642.848, 300.611 633.682, 296.611 624.517, 292.612 615.352, 288.612 606.187, 284.612 597.021, 280.612 587.856, 276.612 578.691, 272.613 569.526, 268.613 560.360, 264.613 551.195, 260.613 542.030, 256.614 532.865, 252.614 523.699, 248.614 514.534, 244.614 506.892, 241.279 497.727, 237.279 488.561, 233.280 487.985, 233.028 480.222, 229.640 471.057, 225.641 469.413, 224.923 461.910, 221.649 461.534, 221.485 459.513, 220.603 450.348, 216.603 444.984, 214.262 445.344, 214.164 454.510, 218.163 461.510, 221.217 470.676, 225.216 479.842, 229.215 480.199, 229.371 480.222, 229.640 " />
            <path fill="none" stroke-width="3.0" stroke-linecap="butt" stroke-opacity="1.0" stroke="rgb(0, 0, 0)" stroke-linejoin="round" d=" M 377.808, -317.472 378.740, -307.515 379.672, -297.559 380.604, -287.602 381.536, -277.646 382.468, -267.689 383.400, -257.733 384.332, -247.776 385.264, -237.820 386.196, -227.863 387.128, -217.907 388.060, -207.950 388.992, -197.994 389.923, -188.037 390.855, -178.081 391.787, -168.125 392.719, -158.168 393.651, -148.212 394.583, -138.255 395.515, -128.299 396.447, -118.342 397.379, -108.386 398.311, -98.429 399.243, -88.473 400.175, -78.516 401.107, -68.560 402.039, -58.603 402.971, -48.647 403.903, -38.690 404.835, -28.734 405.767, -18.777 406.699, -8.821 407.630, 1.136 408.562, 11.092 409.494, 21.049 410.426, 31.005 411.358, 40.962 412.290, 50.918 413.222, 60.875 414.154, 70.831 415.086, 80.787 416.018, 90.744 416.950, 100.700 417.882, 110.657 418.814, 120.613 419.746, 130.570 420.678, 140.526 421.610, 150.483 422.542, 160.439 423.474, 170.396 424.405, 180.352 425.337, 190.309 426.269, 200.265 427.335, 211.652 427.777, 211.533 " />
            <path fill="none" stroke-width="3.0" stroke-linecap="butt" stroke-opacity="1.0" stroke="rgb(0, 0, 0)" stroke-linejoin="round" d=" M 475.992, 655.082 475.073, 645.124 474.155, 635.167 473.236, 625.209 472.318, 615.251 471.399, 605.294 470.481, 595.336 469.562, 585.378 468.644, 575.420 467.725, 565.463 466.807, 555.505 465.888, 545.547 464.970, 535.589 464.051, 525.632 463.133, 515.674 462.214, 505.716 461.296, 495.758 460.377, 485.801 459.459, 475.843 458.540, 465.885 457.622, 455.928 456.703, 445.970 455.785, 436.012 454.866, 426.054 453.948, 416.097 453.029, 406.139 452.111, 396.181 451.192, 386.223 450.274, 376.266 449.355, 366.308 448.437, 356.350 447.518, 346.393 446.600, 336.435 445.681, 326.477 444.763, 316.519 443.668, 304.646 " />
            <path fill="none" stroke-width="3.0" stroke-linecap="butt" stroke-opacity="1.0" stroke="rgb(0, 0, 0)" stroke-linejoin="round" d=" M 425.935, 296.203 426.883, 306.158 427.832, 316.113 428.780, 326.068 429.728, 336.023 430.677, 345.978 431.625, 355.933 432.573, 365.888 433.522, 375.843 434.470, 385.798 435.418, 395.753 436.367, 405.708 437.315, 415.663 438.263, 425.618 439.212, 435.572 440.160, 445.527 441.108, 455.482 442.057, 465.437 443.005, 475.392 443.953, 485.347 444.902, 495.302 445.850, 505.257 446.798, 515.212 447.747, 525.167 448.695, 535.122 449.643, 545.077 450.592, 555.032 451.540, 564.987 452.488, 574.941 453.437, 584.896 454.385, 594.851 455.333, 604.806 456.282, 614.761 457.230, 624.716 458.178, 634.671 459.127, 644.626 459.833, 652.035 468.319, 657.325 469.096, 657.810 475.992, 655.082 476.910, 665.040 477.829, 674.998 478.747, 684.955 479.666, 694.913 480.584, 704.871 481.503, 714.829 482.421, 724.786 483.339, 734.744 484.258, 744.702 485.176, 754.659 486.095, 764.617 487.013, 774.575 487.932, 784.533 488.850, 794.490 489.769, 804.448 490.687, 814.406 491.274, 820.769 499.516, 826.433 507.758, 832.096 516.000, 837.759 524.242, 843.422 532.620, 849.179 541.719, 845.031 550.818, 840.882 554.740, 839.094 553.942, 829.126 553.145, 819.158 552.347, 809.190 551.549, 799.222 550.751, 789.254 549.953, 779.285 549.155, 769.317 548.358, 759.349 547.560, 749.381 546.762, 739.413 545.964, 729.445 545.166, 719.477 544.368, 709.509 543.570, 699.540 542.773, 689.572 541.975, 679.604 541.177, 669.636 540.379, 659.668 539.581, 649.700 538.784, 639.732 537.986, 629.764 537.188, 619.795 536.390, 609.827 535.592, 599.859 534.794, 589.891 533.997, 579.923 533.199, 569.955 532.401, 559.987 531.603, 550.019 530.805, 540.050 530.007, 530.082 529.209, 520.114 528.412, 510.146 527.614, 500.178 526.816, 490.210 526.018, 480.242 525.220, 470.274 524.422, 460.305 523.625, 450.337 522.827, 440.369 522.029, 430.401 521.231, 420.433 520.433, 410.465 519.635, 400.497 518.838, 390.529 518.040, 380.561 517.242, 370.592 516.444, 360.624 515.646, 350.656 514.669, 338.451 " />
            <path fill="none" stroke-width="3.0" stroke-linecap="butt" stroke-opacity="1.0" stroke="rgb(0, 0, 0)" stroke-linejoin="round" d=" M 1138.339, 493.339 1147.531, 497.277 1156.722, 501.216 1165.914, 505.155 1175.105, 509.094 1184.297, 513.033 1193.489, 516.972 1202.680, 520.911 1211.872, 524.850 1216.137, 526.678 1215.661, 536.666 1215.185, 546.655 1214.709, 556.644 1214.234, 566.632 1213.758, 576.621 1213.282, 586.610 1212.806, 596.598 1212.330, 606.587 1211.854, 616.576 1211.723, 619.320 " />
            <path fill="none" stroke-width="3.0" stroke-linecap="butt" stroke-opacity="1.0" stroke="rgb(0, 0, 0)" stroke-linejoin="round" d=" M 1180.755, 1262.650 1181.230, 1252.661 1181.705, 1242.673 1182.181, 1232.684 1182.656, 1222.695 1183.131, 1212.707 1183.606, 1202.718 1184.082, 1192.729 1184.557, 1182.740 1185.032, 1172.752 1185.507, 1162.763 1185.983, 1152.774 1186.458, 1142.786 1186.933, 1132.797 1187.408, 1122.808 1187.884, 1112.820 1188.359, 1102.831 1188.834, 1092.842 1189.309, 1082.853 1189.785, 1072.865 1190.260, 1062.876 1190.735, 1052.887 1191.210, 1042.899 1191.686, 1032.910 1192.161, 1022.921 1192.636, 1012.933 1193.111, 1002.944 1193.587, 992.955 1194.062, 982.966 1194.537, 972.978 1195.012, 962.989 1195.488, 953.000 1195.963, 943.012 1196.438, 933.023 1196.913, 923.034 1197.389, 913.046 1197.864, 903.057 1198.339, 893.068 1198.814, 883.079 1199.290, 873.091 1199.765, 863.102 1200.240, 853.113 1200.715, 843.125 1201.191, 833.136 1201.666, 823.147 1202.141, 813.159 1202.616, 803.170 1203.092, 793.181 1203.567, 783.192 1204.042, 773.204 1204.517, 763.215 1204.993, 753.226 1205.468, 743.238 1205.943, 733.249 1206.418, 723.260 1206.894, 713.272 1207.369, 703.283 1207.844, 693.294 1208.319, 683.305 1208.795, 673.317 1209.270, 663.328 1209.745, 653.339 1210.220, 643.351 1210.696, 633.362 1211.372, 619.158 1211.847, 609.169 1212.322, 599.181 1212.482, 595.811 1212.958, 585.823 1213.433, 575.834 1213.908, 565.845 1214.383, 555.857 1214.859, 545.868 1215.334, 535.879 1215.764, 526.847 1206.572, 522.907 1197.381, 518.967 1188.190, 515.027 1178.999, 511.088 1169.808, 507.148 1160.616, 503.208 1151.425, 499.268 1142.234, 495.329 1139.123, 493.995 1138.306, 494.347 1129.118, 498.293 1119.929, 502.240 1112.719, 505.336 1112.710, 505.662 " />
            <path fill="none" stroke-width="3.0" stroke-linecap="butt" stroke-opacity="1.0" stroke="rgb(0, 0, 0)" stroke-linejoin="round" d=" M 1215.764, 526.847 1206.652, 530.967 1197.540, 535.087 1189.372, 538.780 " />
            <path fill="none" stroke-width="3.0" stroke-linecap="butt" stroke-opacity="1.0" stroke="rgb(0, 0, 0)" stroke-linejoin="round" d=" M 1112.719, 505.336 1121.885, 509.335 1131.050, 513.334 1137.586, 516.186 1146.751, 520.185 1155.917, 524.184 1165.083, 528.183 1174.248, 532.181 1183.414, 536.180 1189.372, 538.780 1188.945, 548.771 1188.517, 558.762 1188.090, 568.752 1187.663, 578.743 1187.236, 588.734 1186.808, 598.725 1186.425, 607.697 1185.998, 617.687 1185.570, 627.678 1185.143, 637.669 1184.716, 647.660 1184.288, 657.651 1183.861, 667.642 1183.434, 677.633 1183.007, 687.624 1182.579, 697.614 1182.152, 707.605 1181.725, 717.596 1181.298, 727.587 1180.870, 737.578 1180.443, 747.569 1180.016, 757.560 1179.589, 767.550 1179.161, 777.541 1178.734, 787.532 1178.307, 797.523 1177.880, 807.514 1177.452, 817.505 1177.025, 827.496 1176.598, 837.487 1176.171, 847.477 1175.743, 857.468 1175.316, 867.459 1174.889, 877.450 1174.462, 887.441 1174.034, 897.432 1173.607, 907.423 1173.180, 917.413 1172.753, 927.404 1172.325, 937.395 1171.898, 947.386 1171.471, 957.377 1171.044, 967.368 1170.616, 977.359 1170.189, 987.350 1169.762, 997.340 1169.335, 1007.331 1168.907, 1017.322 1168.480, 1027.313 1168.053, 1037.304 1167.626, 1047.295 1167.198, 1057.286 1166.771, 1067.277 1166.344, 1077.267 1165.917, 1087.258 1165.489, 1097.249 1165.062, 1107.240 1164.635, 1117.231 1164.208, 1127.222 1163.780, 1137.213 1163.353, 1147.203 1162.926, 1157.194 1162.499, 1167.185 1162.071, 1177.176 1161.644, 1187.167 1161.217, 1197.158 1160.790, 1207.149 1160.362, 1217.140 1159.935, 1227.130 1159.508, 1237.121 1159.081, 1247.112 1158.653, 1257.103 1158.226, 1267.094 1157.730, 1278.702 " />
            <path fill="none" stroke-width="3.0" stroke-linecap="butt" stroke-opacity="1.0" stroke="rgb(0, 0, 0)" stroke-linejoin="round" d=" M 743.716, 66.992 734.021, 69.442 724.326, 71.892 715.852, 74.033 " />
            <path fill="none" stroke-width="3.0" stroke-linecap="butt" stroke-opacity="1.0" stroke="rgb(0, 0, 0)" stroke-linejoin="round" d=" M 656.956, 54.269 666.437, 57.451 675.917, 60.632 685.398, 63.814 686.227, 64.092 695.707, 67.273 705.187, 70.455 714.856, 73.699 715.852, 74.033 716.270, 84.025 716.689, 94.016 717.107, 104.007 717.526, 113.998 717.678, 117.636 718.097, 127.628 718.515, 137.619 718.934, 147.610 719.352, 157.601 719.771, 167.593 720.189, 177.584 720.608, 187.575 721.026, 197.566 721.317, 204.507 721.668, 212.893 722.023, 221.371 722.442, 231.363 722.861, 241.354 723.279, 251.345 723.698, 261.336 724.116, 271.328 724.535, 281.319 724.953, 291.310 725.204, 297.293 725.622, 307.284 725.973, 315.651 726.391, 325.642 726.810, 335.634 726.879, 337.283 726.891, 337.575 727.310, 347.566 727.728, 357.557 727.751, 358.103 727.764, 358.406 " />
            <path fill="none" stroke-width="3.0" stroke-linecap="butt" stroke-opacity="1.0" stroke="rgb(0, 0, 0)" stroke-linejoin="round" d=" M 801.581, 149.006 802.257, 148.816 " />
            <path fill="none" stroke-width="3.0" stroke-linecap="butt" stroke-opacity="1.0" stroke="rgb(0, 0, 0)" stroke-linejoin="round" d=" M 1013.058, 317.020 1003.728, 313.422 994.397, 309.823 985.067, 306.225 975.737, 302.627 966.407, 299.029 957.077, 295.430 947.746, 291.832 938.416, 288.234 929.086, 284.635 919.756, 281.037 910.426, 277.439 901.096, 273.841 891.765, 270.242 882.435, 266.644 873.105, 263.046 863.775, 259.448 854.445, 255.849 845.114, 252.251 835.784, 248.653 826.454, 245.054 815.920, 240.992 806.590, 237.393 804.665, 236.651 803.987, 236.390 803.712, 226.394 803.437, 216.398 803.162, 206.401 802.887, 196.405 802.695, 189.456 802.420, 179.460 802.145, 169.464 801.869, 159.467 801.594, 149.471 801.581, 149.006 811.011, 152.335 820.441, 155.664 829.870, 158.993 839.300, 162.322 848.730, 165.650 858.159, 168.979 867.589, 172.308 877.019, 175.637 886.448, 178.966 895.878, 182.295 905.308, 185.624 914.737, 188.953 924.167, 192.281 933.597, 195.610 943.026, 198.939 952.456, 202.268 961.886, 205.597 971.315, 208.926 980.745, 212.255 990.175, 215.584 999.604, 218.912 1009.034, 222.241 1013.942, 223.974 " />
            <path fill="none" stroke-width="3.0" stroke-linecap="butt" stroke-opacity="1.0" stroke="rgb(0, 0, 0)" stroke-linejoin="round" d=" M 799.626, 52.863 789.931, 55.313 780.236, 57.763 772.681, 59.672 " />
            <path fill="none" stroke-width="3.0" stroke-linecap="butt" stroke-opacity="1.0" stroke="rgb(0, 0, 0)" stroke-linejoin="round" d=" M 713.462, 40.555 722.979, 43.627 732.495, 46.699 742.012, 49.771 751.528, 52.843 761.044, 55.916 770.561, 58.988 772.681, 59.672 773.001, 69.667 773.322, 79.662 773.642, 89.657 773.963, 99.651 774.283, 109.646 774.604, 119.641 774.721, 123.298 775.041, 133.293 775.233, 139.280 775.554, 149.275 775.841, 158.244 " />
            <path fill="none" stroke-width="3.0" stroke-linecap="butt" stroke-opacity="1.0" stroke="rgb(0, 0, 0)" stroke-linejoin="round" d=" M 1119.970, 190.874 1110.462, 193.971 1100.953, 197.068 1091.582, 200.120 " />
            <path fill="none" stroke-width="3.0" stroke-linecap="butt" stroke-opacity="1.0" stroke="rgb(0, 0, 0)" stroke-linejoin="round" d=" M 1014.414, 174.225 1023.895, 177.406 1033.375, 180.588 1042.855, 183.769 1043.298, 183.918 1052.779, 187.099 1062.259, 190.280 1071.463, 193.369 1080.943, 196.550 1090.423, 199.732 1091.582, 200.120 1091.351, 210.118 1091.120, 220.115 1090.890, 230.112 1090.825, 232.934 1090.594, 242.931 1090.363, 252.928 1090.133, 262.926 1089.902, 272.923 1089.671, 282.920 1089.441, 292.918 1089.210, 302.915 1088.979, 312.912 1088.748, 322.910 1088.518, 332.907 1088.287, 342.904 1088.215, 346.005 1087.985, 356.003 1087.754, 366.000 1087.523, 375.997 1087.293, 385.995 1087.062, 395.992 1086.831, 405.989 1086.601, 415.987 1086.370, 425.984 1086.139, 435.981 1085.909, 445.979 1085.835, 449.171 1085.720, 454.145 1085.490, 464.142 1085.259, 474.139 1085.028, 484.137 1084.812, 493.487 1084.805, 493.811 1084.574, 503.808 1084.344, 513.805 1084.281, 516.525 1084.273, 516.860 " />
            <path fill="none" stroke-width="3.0" stroke-linecap="butt" stroke-opacity="1.0" stroke="rgb(0, 0, 0)" stroke-linejoin="round" d=" M 1171.990, 279.768 1172.674, 279.521 1173.052, 269.528 1173.354, 261.557 1173.732, 251.565 1174.109, 241.572 1174.488, 231.579 1174.865, 221.586 1175.243, 211.593 1175.621, 201.600 1175.999, 191.607 1176.377, 181.615 1176.726, 172.388 1167.194, 169.366 1157.661, 166.345 1148.128, 163.324 1138.596, 160.302 1129.063, 157.281 1119.531, 154.259 1109.998, 151.238 1100.465, 148.216 1099.499, 147.910 1089.945, 150.865 1080.392, 153.819 1072.185, 156.357 1072.176, 156.852 " />
            <path fill="none" stroke-width="3.0" stroke-linecap="butt" stroke-opacity="1.0" stroke="rgb(0, 0, 0)" stroke-linejoin="round" d=" M 1235.212, 351.162 1238.465, 349.879 1247.849, 353.334 1255.581, 356.180 1255.049, 366.166 1254.517, 376.152 1253.984, 386.138 1253.452, 396.124 1252.920, 406.109 1252.623, 411.682 1243.396, 415.538 1234.169, 419.393 1224.942, 423.248 1215.715, 427.103 1206.488, 430.958 1197.261, 434.813 1188.034, 438.668 1178.807, 442.523 1169.580, 446.378 1166.312, 447.744 1157.084, 451.599 1147.857, 455.454 1140.225, 458.643 1139.473, 458.957 1130.246, 462.812 1124.579, 465.180 1124.212, 465.333 1114.985, 469.188 1112.908, 470.056 1112.142, 470.376 1103.967, 473.792 1094.770, 469.865 1087.018, 466.556 1087.252, 456.559 1087.324, 453.489 1087.409, 449.834 1087.643, 439.836 1087.876, 429.839 1088.110, 419.842 1088.344, 409.845 1088.362, 409.065 1093.214, 407.151 1102.517, 403.483 1111.820, 399.815 1114.144, 398.899 1114.919, 398.593 1124.222, 394.925 1133.525, 391.257 1141.813, 387.989 1142.574, 387.689 1151.877, 384.021 1161.180, 380.353 1168.977, 377.278 1169.139, 377.214 1168.981, 377.154 1168.328, 376.901 1168.705, 366.909 1169.081, 356.916 1169.458, 346.923 1169.835, 336.930 1170.212, 326.937 1170.589, 316.944 1170.965, 306.951 1171.342, 296.958 1171.719, 286.965 1171.990, 279.768 1181.420, 283.097 1190.849, 286.426 1200.279, 289.755 1209.709, 293.084 1212.177, 293.955 " />
            <path fill="none" stroke-width="3.0" stroke-linecap="butt" stroke-opacity="1.0" stroke="rgb(0, 0, 0)" stroke-linejoin="round" d=" M 1176.726, 172.388 1167.218, 175.485 1157.710, 178.582 1149.407, 181.286 " />
            <path fill="none" stroke-width="3.0" stroke-linecap="butt" stroke-opacity="1.0" stroke="rgb(0, 0, 0)" stroke-linejoin="round" d=" M 1072.185, 156.357 1081.702, 159.429 1091.218, 162.502 1100.734, 165.574 1110.251, 168.646 1119.767, 171.718 1129.284, 174.790 1138.800, 177.862 1148.317, 180.934 1149.407, 181.286 1149.076, 191.281 1148.745, 201.275 1148.415, 211.270 1148.084, 221.264 1147.753, 231.259 1147.422, 241.253 1147.091, 251.248 1147.052, 252.435 1146.721, 262.430 1146.461, 270.271 1146.130, 280.266 1145.799, 290.260 1145.469, 300.255 1145.138, 310.250 1144.807, 320.244 1144.476, 330.239 1144.145, 340.233 1143.814, 350.228 1143.483, 360.222 1143.152, 370.217 1142.821, 380.211 1142.574, 387.689 " />
            <path fill="none" stroke-width="3.0" stroke-linecap="butt" stroke-opacity="1.0" stroke="rgb(0, 0, 0)" stroke-linejoin="round" d=" M 367.263, -319.693 368.211, -309.738 369.159, -299.783 370.108, -289.828 371.056, -279.873 372.004, -269.918 372.953, -259.963 373.901, -250.008 374.849, -240.053 375.798, -230.098 376.746, -220.143 377.694, -210.188 378.643, -200.234 379.591, -190.279 380.539, -180.324 381.488, -170.369 382.436, -160.414 383.384, -150.459 384.333, -140.504 385.281, -130.549 386.229, -120.594 387.178, -110.639 388.126, -100.684 389.074, -90.729 390.023, -80.774 390.971, -70.819 391.919, -60.865 392.868, -50.910 393.816, -40.955 394.764, -31.000 395.713, -21.045 396.661, -11.090 397.609, -1.135 398.558, 8.820 399.506, 18.775 400.454, 28.730 401.403, 38.685 402.351, 48.640 403.299, 58.595 404.248, 68.550 405.196, 78.505 406.145, 88.459 407.093, 98.414 408.041, 108.369 408.990, 118.324 409.938, 128.279 410.886, 138.234 411.835, 148.189 412.783, 158.144 413.731, 168.099 414.680, 178.054 415.628, 188.009 416.576, 197.964 417.525, 207.919 418.118, 214.143 " />
            <path fill="none" stroke-width="3.0" stroke-linecap="butt" stroke-opacity="1.0" stroke="rgb(0, 0, 0)" stroke-linejoin="round" d=" M 793.562, 172.898 793.407, 172.881 793.264, 172.820 793.141, 172.719 793.041, 172.584 792.970, 172.419 792.931, 172.232 792.925, 172.030 792.953, 171.823 793.013, 171.621 793.103, 171.430 793.219, 171.261 793.356, 171.120 793.507, 171.014 793.667, 170.947 793.828, 170.922 793.983, 170.939 794.126, 171.000 " />
            <path fill="none" stroke-width="3.0" stroke-linecap="butt" stroke-opacity="1.0" stroke="rgb(0, 0, 0)" stroke-linejoin="round" d=" M 1186.276, 383.823 1195.606, 387.421 1204.936, 391.020 1207.764, 392.110 1217.034, 388.359 1226.303, 384.608 1233.702, 381.615 1234.197, 371.627 1234.547, 364.570 1235.042, 354.582 1235.212, 351.162 1235.707, 341.174 1236.202, 331.187 1236.697, 321.199 1237.192, 311.211 1237.688, 301.223 1238.183, 291.236 1238.533, 284.164 1229.085, 280.887 1219.637, 277.610 1210.190, 274.333 1200.742, 271.057 1191.294, 267.780 1181.846, 264.503 1173.354, 261.557 " />
            <path fill="none" stroke-width="3.0" stroke-linecap="butt" stroke-opacity="1.0" stroke="rgb(0, 0, 0)" stroke-linejoin="round" d=" M 1105.499, 416.041 1113.756, 412.748 1123.044, 409.043 1132.333, 405.339 1141.359, 401.738 1150.648, 398.034 1159.936, 394.329 1168.460, 390.929 1177.749, 387.224 1186.276, 383.823 1176.945, 380.225 1169.139, 377.214 " />
            <path fill="none" stroke-width="3.0" stroke-linecap="butt" stroke-opacity="1.0" stroke="rgb(0, 0, 0)" stroke-linejoin="round" d=" M 1088.362, 409.065 1097.624, 412.835 1105.499, 416.041 1105.233, 426.038 1104.968, 436.034 1104.703, 446.031 1104.438, 456.027 1104.173, 466.024 1103.967, 473.792 " />
            <path fill="none" stroke-width="3.0" stroke-linecap="butt" stroke-opacity="1.0" stroke="rgb(0, 0, 0)" stroke-linejoin="round" d=" M 654.802, 232.553 664.063, 236.324 666.440, 237.292 " />
            <path fill="none" stroke-width="3.0" stroke-linecap="butt" stroke-opacity="1.0" stroke="rgb(0, 0, 0)" stroke-linejoin="round" d=" M 666.024, 229.254 656.430, 232.074 654.802, 232.553 655.339, 242.539 655.877, 252.524 656.414, 262.510 656.734, 268.457 657.272, 278.442 657.528, 283.207 666.725, 287.133 669.075, 288.136 " />
            <path fill="none" stroke-width="3.0" stroke-linecap="butt" stroke-opacity="1.0" stroke="rgb(0, 0, 0)" stroke-linejoin="round" d=" M 1238.533, 284.164 1229.159, 287.646 1219.785, 291.129 1212.177, 293.955 1211.728, 303.945 1211.279, 313.935 1210.830, 323.925 1210.380, 333.915 1209.931, 343.905 1209.482, 353.895 1209.143, 361.441 1208.694, 371.431 1208.662, 372.124 1208.536, 374.945 1208.086, 384.935 1207.764, 392.110 " />
            <path fill="none" stroke-width="3.0" stroke-linecap="butt" stroke-opacity="1.0" stroke="rgb(0, 0, 0)" stroke-linejoin="round" d=" M 435.684, 300.845 436.616, 310.802 437.548, 320.758 438.480, 330.714 439.412, 340.671 440.344, 350.627 441.276, 360.584 442.207, 370.540 443.139, 380.497 444.071, 390.453 445.003, 400.410 445.935, 410.366 446.867, 420.323 447.799, 430.279 448.731, 440.236 449.663, 450.192 450.595, 460.149 451.527, 470.105 452.459, 480.062 453.391, 490.018 454.323, 499.975 455.255, 509.931 456.187, 519.888 457.119, 529.844 458.051, 539.800 458.982, 549.757 459.914, 559.713 460.846, 569.670 461.778, 579.626 462.710, 589.583 463.642, 599.539 464.574, 609.496 465.506, 619.452 466.438, 629.409 467.370, 639.365 468.302, 649.322 469.096, 657.810 " />
            <path fill="none" stroke-width="3.0" stroke-linecap="butt" stroke-opacity="1.0" stroke="rgb(0, 0, 0)" stroke-linejoin="round" d=" M 488.366, 325.927 489.209, 335.892 490.051, 345.856 490.894, 355.821 491.737, 365.785 492.580, 375.750 493.422, 385.714 494.265, 395.678 495.108, 405.643 495.951, 415.607 496.793, 425.572 497.636, 435.536 498.479, 445.500 499.322, 455.465 500.164, 465.429 501.007, 475.394 501.850, 485.358 502.693, 495.323 503.535, 505.287 504.378, 515.251 505.221, 525.216 506.064, 535.180 506.906, 545.145 507.749, 555.109 508.592, 565.074 509.435, 575.038 510.277, 585.002 511.120, 594.967 511.963, 604.931 512.805, 614.896 513.648, 624.860 514.491, 634.825 515.334, 644.789 516.177, 654.753 517.019, 664.718 517.862, 674.682 518.705, 684.647 519.547, 694.611 520.390, 704.576 521.233, 714.540 522.076, 724.504 522.919, 734.469 523.761, 744.433 524.604, 754.398 525.447, 764.362 526.289, 774.327 527.132, 784.291 527.975, 794.255 528.818, 804.220 529.660, 814.184 530.503, 824.149 531.346, 834.113 532.620, 849.179 " />
            <path fill="none" stroke-width="3.0" stroke-linecap="butt" stroke-opacity="1.0" stroke="rgb(0, 0, 0)" stroke-linejoin="round" d=" M 736.984, 444.297 737.393, 454.289 737.801, 464.280 738.030, 469.882 " />
            <path fill="none" stroke-width="3.0" stroke-linecap="butt" stroke-opacity="1.0" stroke="rgb(0, 0, 0)" stroke-linejoin="round" d=" M 758.830, 454.698 759.199, 464.691 759.568, 474.684 759.937, 484.677 760.306, 494.671 760.675, 504.664 761.044, 514.657 761.413, 524.650 761.782, 534.643 762.151, 544.637 762.520, 554.630 762.889, 564.623 763.258, 574.616 763.627, 584.609 763.996, 594.603 764.402, 605.604 " />
            <path fill="none" stroke-width="3.0" stroke-linecap="butt" stroke-opacity="1.0" stroke="rgb(0, 0, 0)" stroke-linejoin="round" d=" M 753.330, 835.260 746.594, 842.651 739.857, 850.041 733.121, 857.432 726.384, 864.823 719.648, 872.213 712.912, 879.604 706.175, 886.995 699.439, 894.385 692.703, 901.776 685.966, 909.167 679.230, 916.557 675.052, 921.141 " />
            <path fill="none" stroke-width="3.0" stroke-linecap="butt" stroke-opacity="1.0" stroke="rgb(0, 0, 0)" stroke-linejoin="round" d=" M 710.332, 937.231 716.949, 929.733 723.565, 922.235 730.182, 914.737 736.799, 907.239 743.416, 899.741 750.033, 892.243 756.649, 884.746 763.266, 877.248 769.883, 869.750 776.500, 862.252 780.867, 857.303 " />
            <path fill="none" stroke-width="3.0" stroke-linecap="butt" stroke-opacity="1.0" stroke="rgb(0, 0, 0)" stroke-linejoin="round" d=" M 781.605, 361.166 781.283, 351.171 780.961, 341.176 780.929, 340.177 780.920, 339.891 780.598, 329.896 780.295, 320.494 780.286, 320.218 779.965, 310.223 779.643, 300.228 779.321, 290.233 778.999, 280.239 778.677, 270.244 778.356, 260.249 778.178, 254.735 777.898, 246.027 777.576, 236.033 777.254, 226.038 777.241, 225.618 776.919, 215.623 776.687, 208.403 776.583, 205.192 776.314, 196.827 775.992, 186.832 775.670, 176.837 775.493, 171.342 " />
            <path fill="none" stroke-width="3.0" stroke-linecap="butt" stroke-opacity="1.0" stroke="rgb(0, 0, 0)" stroke-linejoin="round" d=" M 718.620, 942.815 725.204, 935.289 731.789, 927.763 738.373, 920.236 744.958, 912.710 751.542, 905.184 758.126, 897.657 764.711, 890.131 771.295, 882.605 777.879, 875.078 784.464, 867.552 788.988, 862.380 " />
            <path fill="none" stroke-width="3.0" stroke-linecap="butt" stroke-opacity="1.0" stroke="rgb(0, 0, 0)" stroke-linejoin="round" d=" M 658.515, 1011.519 665.100, 1003.993 671.684, 996.466 678.268, 988.940 684.853, 981.414 691.437, 973.887 695.988, 968.685 " />
            <path fill="none" stroke-width="3.0" stroke-linecap="butt" stroke-opacity="1.0" stroke="rgb(0, 0, 0)" stroke-linejoin="round" d=" M 1037.422, 587.338 1037.399, 588.901 " />
            <path fill="none" stroke-width="3.0" stroke-linecap="butt" stroke-opacity="1.0" stroke="rgb(0, 0, 0)" stroke-linejoin="round" d=" M 1081.342, 608.249 1081.151, 616.544 1080.922, 626.542 1080.697, 636.355 " />
            <path fill="none" stroke-width="3.0" stroke-linecap="butt" stroke-opacity="1.0" stroke="rgb(0, 0, 0)" stroke-linejoin="round" d=" M 1109.428, 621.621 1109.392, 622.923 1109.109, 632.919 1108.826, 642.915 1108.543, 652.911 1108.260, 662.907 1107.977, 672.903 1107.694, 682.899 1107.412, 692.895 1107.129, 702.891 1106.846, 712.887 1106.563, 722.883 1106.280, 732.879 1105.997, 742.875 1105.714, 752.871 1105.482, 761.096 1105.199, 771.092 1104.916, 781.088 1104.772, 786.162 1104.490, 796.158 1104.207, 806.154 1103.924, 816.150 1103.641, 826.146 1103.358, 836.142 1103.075, 846.138 1102.792, 856.134 1102.510, 866.130 1102.227, 876.126 1101.944, 886.122 1101.661, 896.118 1101.378, 906.114 1101.095, 916.110 1100.812, 926.106 1100.530, 936.102 1100.247, 946.098 1099.964, 956.094 1099.681, 966.090 1099.398, 976.086 1099.115, 986.082 1098.833, 996.078 1098.550, 1006.074 1098.267, 1016.070 1097.984, 1026.066 1097.701, 1036.062 1097.418, 1046.058 1097.135, 1056.054 1096.853, 1066.050 1096.570, 1076.046 1096.287, 1086.042 1096.004, 1096.038 1095.721, 1106.034 1095.438, 1116.030 1095.156, 1126.026 1094.873, 1136.022 1094.590, 1146.018 1094.307, 1156.014 1094.024, 1166.010 1093.741, 1176.006 1093.458, 1186.002 1093.176, 1195.998 1092.893, 1205.994 1092.610, 1215.990 1092.327, 1225.986 1092.111, 1233.615 " />
            <path fill="none" stroke-width="3.0" stroke-linecap="butt" stroke-opacity="1.0" stroke="rgb(0, 0, 0)" stroke-linejoin="round" d=" M 1108.652, 621.251 1108.594, 623.296 1108.313, 633.292 1108.031, 643.288 1107.750, 653.284 1107.469, 663.280 1107.187, 673.276 1106.906, 683.273 1106.625, 693.269 1106.343, 703.265 1106.062, 713.261 1105.781, 723.257 1105.499, 733.253 1105.218, 743.249 1104.937, 753.245 1104.655, 763.241 1104.374, 773.237 1104.092, 783.233 1103.999, 786.566 " />
            <path fill="none" stroke-width="3.0" stroke-linecap="butt" stroke-opacity="1.0" stroke="rgb(0, 0, 0)" stroke-linejoin="round" d=" M 1112.908, 470.056 1112.626, 480.052 1112.345, 490.048 1112.063, 500.044 1111.915, 505.315 " />
            <path fill="none" stroke-width="3.0" stroke-linecap="butt" stroke-opacity="1.0" stroke="rgb(0, 0, 0)" stroke-linejoin="round" d=" M 1138.306, 494.347 1138.339, 493.339 1138.350, 493.023 1138.679, 483.028 1139.009, 473.033 1139.056, 471.585 1139.066, 471.279 1139.396, 461.285 1139.473, 458.957 " />
            <path fill="none" stroke-width="3.0" stroke-linecap="butt" stroke-opacity="1.0" stroke="rgb(0, 0, 0)" stroke-linejoin="round" d=" M 1168.977, 377.278 1168.981, 377.154 " />
            <path fill="none" stroke-width="3.0" stroke-linecap="butt" stroke-opacity="1.0" stroke="rgb(0, 0, 0)" stroke-linejoin="round" d=" M 1011.685, 461.574 1002.519, 457.574 993.354, 453.574 984.189, 449.575 975.024, 445.575 965.858, 441.575 956.693, 437.575 947.528, 433.576 938.363, 429.576 929.197, 425.576 920.032, 421.576 910.867, 417.576 901.702, 413.577 892.536, 409.577 883.371, 405.577 874.206, 401.577 865.041, 397.578 855.875, 393.578 846.710, 389.578 837.545, 385.578 828.380, 381.578 819.214, 377.579 810.049, 373.579 800.884, 369.579 791.719, 365.579 781.605, 361.166 772.439, 357.166 763.274, 353.166 754.946, 349.532 754.176, 349.195 " />
            <path fill="none" stroke-width="3.0" stroke-linecap="butt" stroke-opacity="1.0" stroke="rgb(0, 0, 0)" stroke-linejoin="round" d=" M 780.929, 340.177 790.120, 344.115 799.312, 348.054 808.504, 351.993 817.695, 355.932 826.887, 359.871 836.078, 363.810 845.270, 367.749 854.462, 371.688 863.653, 375.627 872.845, 379.565 882.036, 383.504 891.228, 387.443 900.419, 391.382 909.611, 395.321 918.803, 399.260 927.994, 403.199 937.186, 407.138 946.377, 411.077 955.569, 415.016 964.760, 418.954 973.952, 422.893 983.144, 426.832 992.335, 430.771 1001.527, 434.710 1011.898, 439.154 " />
            <path fill="none" stroke-width="3.0" stroke-linecap="butt" stroke-opacity="1.0" stroke="rgb(0, 0, 0)" stroke-linejoin="round" d=" M 1014.109, 206.326 1004.661, 203.049 995.214, 199.773 985.766, 196.496 976.318, 193.219 966.870, 189.942 957.422, 186.665 947.974, 183.388 938.526, 180.112 929.078, 176.835 919.630, 173.558 910.183, 170.281 900.735, 167.004 891.287, 163.727 881.839, 160.451 872.391, 157.174 862.943, 153.897 853.495, 150.620 844.047, 147.343 834.600, 144.066 825.152, 140.789 815.704, 137.513 806.256, 134.236 801.815, 132.696 " />
            <path fill="none" stroke-width="3.0" stroke-linecap="butt" stroke-opacity="1.0" stroke="rgb(0, 0, 0)" stroke-linejoin="round" d=" M 1234.547, 364.570 1243.835, 360.865 1253.124, 357.160 1255.581, 356.180 " />
        </g>
    </g>
</svg>
